<?xml version="1.0" encoding="UTF-8"?><svg id="Capa_2" xmlns="http://www.w3.org/2000/svg" viewBox="0 0 361.86 108.27"><defs><style>.cls-1{fill:#fc0;}.cls-2{fill:#b90f0d;}.cls-3{fill:#b70e0c;}.cls-4{fill:#90140b;}.cls-5{fill:#f39325;}.cls-6{fill:#fff;}.cls-7{fill:#e74124;}</style></defs><g id="Layer_3"><path class="cls-6" d="M105.87,81.61l-.21-2.09-6.14-61.57.05-1.34.08-2.11-2.06-.45L36.18.65l-.18-.06-1.91-.59-1.01,1.73L1,56.61l.06.04-1.06,1.61,1.29,1.45,42.28,47.47.04-.03.84,1.13,1.84-.81,57.64-25.29,1.95-.56ZM45.9,36.86l19.71,1.06,4.91,18.4-16.64,10.78-14.95-12.13,6.97-18.1Z"/><path class="cls-6" d="M123.23,46.35c2.08,0,4.09-.54,5.96-1.61.09-.05.17-.13.26-.19.19.84.94,1.46,1.84,1.46h10.19c.66,0,1.25-.34,1.58-.86.34.52.92.86,1.58.86h2.79c1.04,0,1.89-.85,1.89-1.89v-8.23l10.22,10.66c.36.38.86.58,1.37.58.24,0,.48-.05.7-.14.72-.29,1.19-.98,1.19-1.76v-15.09s.07.01.11.01h2.36v13.96c0,1.05.85,1.89,1.89,1.89h2.79c1.05,0,1.89-.85,1.89-1.89v-13.96h2.34s.07,0,.11-.01v13.97c0,1.05.85,1.89,1.89,1.89h2.79c1.04,0,1.89-.85,1.89-1.89v-2.27l2.33,3.35c.35.51.93.81,1.55.81h3.41c.71,0,1.36-.4,1.68-1.03.32-.63.26-1.39-.15-1.97l-4.33-5.97c.57-.39,1.08-.86,1.53-1.42.13-.16.23-.34.34-.51.07,3.37,1.33,6.17,3.77,8.3,2.24,1.95,4.82,2.94,7.67,2.94,3.19,0,5.96-1.12,8.23-3.33,2.27-2.21,3.41-4.94,3.41-8.11s-1.14-5.88-3.39-8.12c-2.24-2.24-4.97-3.38-8.11-3.38s-5.91,1.12-8.17,3.34c-.99.96-1.75,2.03-2.31,3.17-.25-1.72-1.05-3.21-2.37-4.34-1.45-1.23-3.58-1.82-6.51-1.82h-3.27c-.37,0-.71.11-1,.29-.29-.18-.63-.29-1-.29h-11.27c-.37,0-.71.11-1,.29-.29-.18-.63-.29-1-.29h-2.79c-1.04,0-1.89.85-1.89,1.89v8.12l-10.22-10.69c-.53-.56-1.35-.74-2.07-.45-.68.27-1.12.92-1.17,1.64-.34-.32-.79-.52-1.3-.52h-10.19c-.89,0-1.63.61-1.83,1.44-.08-.07-.16-.14-.25-.19-1.83-1.06-3.77-1.6-5.76-1.6-3.6,0-6.59,1.36-8.88,4.06-1.84,2.19-2.78,4.72-2.78,7.51,0,3.13,1.12,5.84,3.35,8.07,2.23,2.19,4.95,3.31,8.09,3.31ZM195.24,31.26c.96-.97,2.12-1.45,3.53-1.45s2.56.47,3.51,1.45c.96.97,1.43,2.16,1.43,3.62s-.48,2.63-1.45,3.62c-.97.98-2.14,1.45-3.56,1.45-1.29,0-2.4-.47-3.42-1.45-.99-.95-1.48-2.15-1.48-3.67,0-1.44.47-2.6,1.44-3.57ZM180.86,30.21c1.06.14,1.06.55,1.06.89,0,.43,0,.9-1.06,1.07v-1.96ZM135.96,30.16h5.52c.49,0,.94-.19,1.28-.5v1.91c-.35-.45-.88-.75-1.5-.75h-5.3v-.66ZM135.96,37.21h5.3c.61,0,1.15-.3,1.5-.75v3.64c-.34-.31-.78-.5-1.28-.5h-5.52v-2.39ZM119.83,31.26c.95-1,2.04-1.46,3.43-1.46,1.28,0,2.51.52,3.79,1.58.56.47,1.35.57,2.01.26.12-.06.23-.14.34-.22v6.81c-.11-.08-.22-.16-.34-.22-.67-.31-1.45-.2-2.02.27-.4.33-.77.62-1.12.85-.31.21-.6.36-.95.51-.43.2-1,.3-1.7.3-1.38,0-2.51-.47-3.46-1.43-.96-.97-1.42-2.15-1.42-3.58s.47-2.66,1.44-3.67Z"/><path class="cls-6" d="M218,46.01h3.83c2.1,0,3.71-.2,4.91-.6,1.34-.42,2.62-1.17,3.82-2.22.74-.66,1.36-1.38,1.87-2.16v3.09c0,1.05.85,1.89,1.89,1.89h10.19c1.04,0,1.89-.85,1.89-1.89v-2.62c0-1.05-.85-1.89-1.89-1.89h-5.51v-2.39h5.3c1.04,0,1.89-.85,1.89-1.89v-2.62c0-1.04-.85-1.89-1.89-1.89h-5.3v-.66h5.51c1.04,0,1.89-.85,1.89-1.89v-2.62c0-1.04-.85-1.89-1.89-1.89h-10.19c-1.05,0-1.89.85-1.89,1.89v3.03c-.48-.73-1.05-1.42-1.73-2.04-1.15-1.05-2.45-1.8-3.82-2.23-1.29-.44-2.93-.65-5.01-.65h-3.87c-1.04,0-1.89.85-1.89,1.89v18.47c0,1.05.85,1.89,1.89,1.89ZM222.68,30.18c1.56.08,2.73.47,3.47,1.16.98.91,1.43,2.04,1.43,3.55s-.46,2.6-1.44,3.5c-.47.43-.99.74-1.55.92-.5.16-1.15.26-1.92.29v-9.42Z"/><path class="cls-6" d="M261.91,46.35c2.08,0,4.09-.54,5.96-1.61.29-.16.52-.4.69-.68v.06c0,1.05.85,1.89,1.89,1.89h2.79c1.05,0,1.89-.85,1.89-1.89v-18.47c0-1.04-.85-1.89-1.89-1.89h-2.79c-1.04,0-1.89.85-1.89,1.89v.03c-.16-.27-.39-.51-.67-.67-1.83-1.07-3.77-1.6-5.76-1.6-3.61,0-6.59,1.36-8.88,4.06-1.84,2.18-2.78,4.71-2.78,7.51,0,3.13,1.12,5.84,3.35,8.07,2.23,2.2,4.95,3.31,8.09,3.31ZM258.51,31.26c.95-1,2.04-1.46,3.43-1.46,1.28,0,2.51.52,3.79,1.58.56.47,1.35.57,2.01.26.35-.17.63-.44.82-.76v7.89c-.19-.33-.47-.6-.83-.76-.67-.31-1.45-.21-2.02.27-.4.34-.78.62-1.13.85-.3.2-.59.36-.95.51-.43.2-1,.3-1.7.3-1.38,0-2.51-.47-3.46-1.43-.96-.98-1.42-2.15-1.42-3.58s.47-2.66,1.44-3.67Z"/><path class="cls-6" d="M360.41,34.17c-.82-1.03-2.02-1.9-3.59-2.6.47.11.96.03,1.38-.22l2.26-1.34c.89-.53,1.19-1.68.67-2.58-1.53-2.64-3.83-4.04-6.63-4.04-2.05,0-3.8.63-5.21,1.88-1.46,1.29-2.23,2.98-2.23,4.9s.86,4.7,4.96,6.43l1.76.73c.37.16.68.32.92.48.17.11.32.24.39.32.07.08.11.15.13.22.03.11.05.24.05.4,0,.5-.16.73-.32.88-.16.16-.37.31-.82.31-.63,0-.84-.21-1-.44,0-.01-.19-.31-.31-1.34-.06-.53-.35-1.01-.78-1.32-.44-.31-.98-.42-1.5-.3l-2.82.62s-.04.02-.06.02l-6.06-13.48c-.3-.68-.97-1.11-1.71-1.12h-.01c-.74,0-1.4.43-1.71,1.09l-7.36,15.82v-13.86c0-1.04-.85-1.89-1.89-1.89h-2.79c-.89,0-1.62.61-1.83,1.43-.08-.07-.16-.14-.25-.19-1.84-1.06-3.77-1.6-5.76-1.6-3.61,0-6.59,1.36-8.88,4.06-.26.3-.49.62-.71.94v-2.74c0-1.04-.85-1.89-1.89-1.89h-2.78c-1.04,0-1.89.85-1.89,1.89v8.12l-10.21-10.69c-.53-.56-1.35-.74-2.07-.45-.68.27-1.13.92-1.17,1.64-.34-.32-.79-.52-1.3-.52h-10.19c-1.05,0-1.89.85-1.89,1.89v18.47c0,1.05.85,1.89,1.89,1.89h10.19c.67,0,1.25-.35,1.59-.87.34.52.92.87,1.59.87h2.78c1.05,0,1.89-.85,1.89-1.89v-8.23l10.21,10.66c.36.38.86.58,1.37.58.24,0,.48-.05.7-.14.72-.29,1.19-.98,1.19-1.76v-3.73c.38.53.8,1.04,1.29,1.52,2.22,2.2,4.95,3.31,8.09,3.31,2.08,0,4.09-.54,5.96-1.61.09-.05.17-.12.25-.19.2.84.94,1.46,1.84,1.46h2.79c.33,0,.64-.09.91-.24.28.16.59.24.92.24h3c.74,0,1.41-.43,1.72-1.1l1.55-3.38h5.45l1.44,3.34c.3.69.98,1.14,1.74,1.14h3.05c.55,0,1.05-.24,1.41-.65,1.14.64,2.44.98,3.92.98,2.19,0,4.07-.75,5.57-2.22,1.5-1.47,2.27-3.34,2.27-5.57,0-1.7-.49-3.18-1.45-4.39ZM281.87,30.16h5.52c.5,0,.94-.2,1.28-.51v1.91c-.35-.45-.88-.75-1.5-.75h-5.3v-.66ZM281.87,39.61v-2.39h5.3c.61,0,1.15-.3,1.5-.75v3.65c-.34-.31-.78-.51-1.28-.51h-5.52ZM323.9,38.01c-.67-.31-1.45-.21-2.02.27-.4.34-.78.62-1.12.85-.31.2-.61.36-.95.51-.43.2-1,.3-1.7.3-1.38,0-2.51-.47-3.46-1.43-.96-.98-1.42-2.15-1.42-3.58s.47-2.66,1.44-3.67c.95-1,2.04-1.46,3.43-1.46,1.28,0,2.52.52,3.79,1.58.56.47,1.35.57,2.01.26.12-.06.23-.14.33-.22v6.81c-.11-.08-.21-.16-.33-.22ZM354.52,30.63c-.55-.23-.79-.43-.83-.43,0,0,0,0,0,0,0-.09,0-.1.12-.2.06-.05.23-.2.68-.2.29,0,.47.05.56.1,0,0,.2.16.56.77.15.26.36.48.61.64l-1.69-.69Z"/><path class="cls-6" d="M277.35,56.62c.47.1.96.03,1.37-.22l2.26-1.34c.89-.53,1.19-1.68.67-2.57-1.53-2.64-3.82-4.04-6.63-4.04-2.04,0-3.8.63-5.21,1.88-1.46,1.28-2.23,2.98-2.23,4.9s.86,4.7,4.96,6.43l1.76.74c.37.16.67.31.9.47.23.15.35.27.4.33.08.1.11.17.12.21.04.11.05.24.05.4,0,.49-.16.72-.32.88-.16.16-.37.31-.81.31-.63,0-.83-.21-1-.44,0-.01-.18-.31-.31-1.33-.06-.53-.35-1.01-.78-1.32-.43-.31-.98-.42-1.5-.31l-2.82.62c-.17.04-.32.12-.47.2l-6.13-13.65c-.3-.67-.97-1.11-1.71-1.12-.71,0-1.41.42-1.73,1.09l-6.74,14.49c-.08-.06-.16-.12-.25-.16-.67-.31-1.45-.21-2.02.27-.4.34-.78.62-1.12.85-.31.2-.6.36-.94.51-.44.2-1.01.31-1.71.31-1.38,0-2.51-.47-3.46-1.43-.96-.97-1.42-2.14-1.42-3.58s.47-2.67,1.44-3.67c.94-.98,2.06-1.46,3.43-1.46,1.27,0,2.51.52,3.79,1.59.56.47,1.35.57,2.01.26.67-.31,1.09-.98,1.09-1.71v-3.29c0-.67-.36-1.3-.94-1.64-1.83-1.06-3.77-1.6-5.76-1.6-3.6,0-6.59,1.36-8.87,4.06-.62.73-1.12,1.5-1.53,2.3v-4.11c0-1.04-.85-1.89-1.89-1.89h-2.79c-.48,0-.91.18-1.24.48-.33-.29-.77-.48-1.24-.48h-11.27c-1.04,0-1.89.85-1.89,1.89v2.62c0,1.05.85,1.89,1.89,1.89h2.36v12.04l-7.97-17.76,3.24-2.19c.52-.35.83-.93.83-1.55,0-.62-.3-1.21-.8-1.56l-2.37-1.66c-.75-.53-1.78-.44-2.43.21l-3.84,3.85c-.37.37-.57.89-.55,1.42.02.53.27,1.02.67,1.36l.85.72-6.93,14.87-2.81-15.97c-.14-.82-.8-1.44-1.62-1.55-.83-.11-1.62.34-1.96,1.09l-4.82,10.53-4.64-10.51c-.33-.76-1.12-1.21-1.94-1.12-.82.09-1.49.71-1.65,1.52l-3.19,16.3c-.34-.36-.83-.59-1.37-.59h-5.52v-2.39h5.3c1.04,0,1.89-.85,1.89-1.89v-2.62c0-1.04-.85-1.89-1.89-1.89h-5.3v-.66h5.52c1.04,0,1.89-.85,1.89-1.89v-2.62c0-1.04-.85-1.89-1.89-1.89h-10.19c-.48,0-.91.18-1.24.48-.33-.29-.76-.48-1.24-.48h-11.27c-1.05,0-1.89.85-1.89,1.89v2.62c0,1.05.85,1.89,1.89,1.89h2.36v12.04l-8.3-18.48c-.3-.67-.97-1.11-1.71-1.12-.76,0-1.42.42-1.73,1.09l-7.2,15.46-2.68-15.21c-.14-.82-.8-1.44-1.62-1.55-.83-.11-1.62.34-1.96,1.09l-4.82,10.53-4.64-10.51c-.33-.75-1.11-1.21-1.94-1.12-.82.09-1.49.7-1.65,1.52l-3.89,19.86c-.11.55.04,1.13.4,1.57.36.44.89.69,1.46.69h2.88c.92,0,1.7-.66,1.86-1.56l.9-5.06,2.81,6.35c.3.68.97,1.12,1.72,1.13h.01c.74,0,1.41-.43,1.72-1.11l2.87-6.3.79,4.96c.15.92.94,1.59,1.87,1.59h2.86c.14,0,.28-.02.42-.05.13.03.26.05.39.05h3c.74,0,1.41-.43,1.72-1.1l1.55-3.39h5.45l1.45,3.35c.3.69.98,1.14,1.74,1.14h3.05c.62,0,1.19-.31,1.55-.82.34.49.91.81,1.55.81h2.79c1.05,0,1.89-.85,1.89-1.89v-13.96h2.35c.21,0,.41-.04.6-.1v14.06c0,1.04.85,1.89,1.89,1.89h10.19c.49,0,.93-.19,1.27-.5.35.31.79.5,1.26.5h2.88c.92,0,1.7-.66,1.86-1.56l.9-5.06,2.81,6.34c.3.68.97,1.12,1.72,1.13h.01c.74,0,1.41-.43,1.72-1.11l2.87-6.3.79,4.96c.15.92.94,1.59,1.87,1.59h2.86c.23,0,.45-.05.66-.13.21.08.42.13.65.13h3c.74,0,1.41-.43,1.72-1.1l1.55-3.39h5.45l1.44,3.35c.3.69.98,1.14,1.74,1.14h3.05c.62,0,1.2-.31,1.55-.82.34.49.91.82,1.55.82h2.79c1.05,0,1.89-.85,1.89-1.89v-13.96h2.34c.21,0,.41-.04.6-.11v14.07c0,1.04.85,1.89,1.89,1.89h2.79c1.04,0,1.89-.85,1.89-1.89v-3.93c.53,1.02,1.23,1.97,2.1,2.85,2.23,2.19,4.95,3.31,8.08,3.31,1.44,0,2.84-.28,4.18-.79.34.28.76.45,1.21.45h3c.74,0,1.41-.43,1.72-1.1l1.55-3.39h5.45l1.44,3.35c.3.69.98,1.14,1.74,1.14h3.05c.63,0,1.22-.32,1.57-.84,1.21.77,2.63,1.17,4.25,1.17,2.2,0,4.07-.75,5.57-2.21,1.51-1.47,2.27-3.34,2.27-5.57,0-1.7-.49-3.18-1.45-4.4-.82-1.03-2.03-1.9-3.59-2.6ZM275.05,55.67c-.55-.23-.79-.43-.83-.43,0,0,0,0,0,0,0-.09,0-.1.11-.2.06-.06.23-.2.69-.2.28,0,.46.05.56.11,0,0,.2.16.55.76.15.26.36.48.61.64l-1.68-.69Z"/><polygon class="cls-7" points="3.17 57.87 27.5 21.1 17.99 68.57 45.45 105.34 3.17 57.87"/><polygon class="cls-5" points="27.51 21.1 55.06 22.59 28.55 42.32 17.99 68.56 27.51 21.1"/><polygon class="cls-1" points="28.55 42.32 55.06 22.59 67.54 35.34 44.52 34.11 28.55 42.32"/><polygon class="cls-2" points="17.82 68.22 45.27 105 103.49 79.45 60.02 91.94 17.82 68.22"/><polygon class="cls-7" points="28.37 41.97 17.82 68.22 60.02 91.94 38.94 73.27 28.37 41.97"/><polygon class="cls-5" points="44.34 33.76 28.37 41.97 38.94 73.27 36.05 55.29 44.34 33.76"/><polygon class="cls-4" points="59.69 92.1 103.16 79.61 96.85 16.36 95.29 59.29 59.69 92.1"/><polygon class="cls-2" points="38.62 73.43 59.69 92.1 95.29 59.29 71.65 73.05 38.62 73.43"/><polygon class="cls-7" points="35.72 55.44 38.62 73.43 71.65 73.05 53.62 69.98 35.72 55.44"/><polygon class="cls-4" points="71.86 73.05 95.49 59.29 75.29 15.3 81.71 41.52 71.86 73.05"/><polygon class="cls-2" points="53.83 69.98 71.86 73.05 81.71 41.52 73.19 57.44 53.83 69.98"/><polygon class="cls-2" points="95.49 59.29 75.29 15.3 34.95 2.81 97.06 16.36 95.49 59.29"/><polygon class="cls-5" points="75.59 15.33 35.25 2.85 3.17 57.73 27.5 20.96 75.59 15.33"/><polygon class="cls-1" points="27.5 20.96 75.59 15.33 82.01 41.56 55.05 22.44 27.5 20.96"/><polygon class="cls-4" points="55.05 22.44 67.54 35.2 73.49 57.48 82.01 41.56 55.05 22.44"/><path class="cls-3" d="M128.26,26.48v3.3c-1.61-1.35-3.28-2.02-5-2.02-1.9,0-3.5.68-4.8,2.05-1.31,1.35-1.96,3.01-1.96,4.97s.66,3.57,1.96,4.91c1.31,1.33,2.91,2,4.81,2,.98,0,1.82-.16,2.5-.48.38-.16.78-.37,1.19-.64.41-.27.84-.6,1.3-.98v3.37c-1.6.91-3.27,1.36-5.02,1.36-2.64,0-4.89-.92-6.76-2.76-1.86-1.86-2.79-4.1-2.79-6.72,0-2.35.78-4.45,2.33-6.29,1.92-2.26,4.39-3.39,7.43-3.39,1.65,0,3.26.45,4.81,1.35"/><polygon class="cls-3" points="141.48 28.12 134.07 28.12 134.07 32.55 141.26 32.55 141.26 35.17 134.07 35.17 134.07 41.35 141.48 41.35 141.48 43.97 131.29 43.97 131.29 25.49 141.48 25.49 141.48 28.12"/><polygon class="cls-3" points="144.65 43.97 144.65 24.24 158.12 38.33 158.12 25.49 160.91 25.49 160.91 45.09 147.44 31.03 147.44 43.97 144.65 43.97"/><polygon class="cls-3" points="169.94 28.12 169.94 43.97 167.16 43.97 167.16 28.12 162.91 28.12 162.91 25.49 174.18 25.49 174.18 28.12 169.94 28.12"/><path class="cls-3" d="M182.43,36.09l5.72,7.87h-3.41l-5.27-7.56h-.5v7.56h-2.79v-18.47h3.27c2.44,0,4.2.46,5.29,1.38,1.2,1.02,1.79,2.37,1.79,4.04,0,1.31-.38,2.43-1.12,3.37-.75.94-1.74,1.54-2.97,1.81M178.96,33.98h.89c2.64,0,3.96-1.01,3.96-3.03,0-1.89-1.28-2.83-3.85-2.83h-.99v5.86Z"/><path class="cls-3" d="M189.1,34.65c0-2.6.95-4.83,2.86-6.7,1.9-1.86,4.18-2.8,6.84-2.8s4.89.94,6.77,2.82c1.89,1.88,2.83,4.14,2.83,6.78s-.95,4.91-2.84,6.76c-1.91,1.86-4.21,2.79-6.91,2.79-2.39,0-4.53-.83-6.42-2.48-2.09-1.83-3.13-4.22-3.13-7.18M191.91,34.68c0,2.04.69,3.72,2.06,5.03,1.36,1.32,2.94,1.97,4.72,1.97,1.94,0,3.58-.67,4.9-2.01,1.33-1.35,2-3,2-4.95s-.66-3.62-1.97-4.95c-1.31-1.34-2.93-2.01-4.86-2.01s-3.55.67-4.87,2.01c-1.32,1.32-1.99,2.95-1.99,4.9"/><path class="cls-3" d="M218,43.97v-18.47h3.87c1.86,0,3.32.19,4.4.55,1.16.36,2.21.97,3.15,1.83,1.91,1.74,2.86,4.02,2.86,6.85s-.99,5.14-2.98,6.89c-1,.88-2.04,1.48-3.14,1.83-1.02.34-2.47.51-4.34.51h-3.83ZM220.79,41.35h1.26c1.25,0,2.3-.13,3.12-.4.83-.28,1.58-.72,2.25-1.33,1.37-1.25,2.06-2.88,2.06-4.89s-.68-3.67-2.03-4.93c-1.22-1.12-3.02-1.68-5.4-1.68h-1.26v13.23Z"/><polygon class="cls-3" points="244.51 28.12 237.11 28.12 237.11 32.55 244.3 32.55 244.3 35.17 237.11 35.17 237.11 41.35 244.51 41.35 244.51 43.97 234.32 43.97 234.32 25.49 244.51 25.49 244.51 28.12"/><path class="cls-3" d="M266.94,26.48v3.3c-1.61-1.35-3.28-2.02-5-2.02-1.9,0-3.5.68-4.8,2.05-1.31,1.35-1.96,3.01-1.96,4.97s.66,3.57,1.96,4.91c1.31,1.33,2.91,2,4.81,2,.98,0,1.82-.16,2.5-.48.39-.16.78-.37,1.19-.64.41-.27.84-.6,1.3-.98v3.37c-1.6.91-3.27,1.36-5.02,1.36-2.64,0-4.9-.92-6.76-2.76-1.86-1.86-2.78-4.1-2.78-6.72,0-2.35.78-4.45,2.33-6.29,1.91-2.26,4.39-3.39,7.43-3.39,1.66,0,3.26.45,4.81,1.35"/><rect class="cls-3" x="270.45" y="25.49" width="2.79" height="18.47"/><polygon class="cls-3" points="287.38 28.12 279.98 28.12 279.98 32.55 287.16 32.55 287.16 35.17 279.98 35.17 279.98 41.35 287.38 41.35 287.38 43.97 277.19 43.97 277.19 25.49 287.38 25.49 287.38 28.12"/><polygon class="cls-3" points="290.55 43.97 290.55 24.24 304.02 38.33 304.02 25.49 306.81 25.49 306.81 45.09 293.34 31.03 293.34 43.97 290.55 43.97"/><path class="cls-3" d="M323.1,26.48v3.3c-1.61-1.35-3.28-2.02-5-2.02-1.9,0-3.5.68-4.8,2.05-1.31,1.35-1.96,3.01-1.96,4.97s.66,3.57,1.96,4.91c1.31,1.33,2.91,2,4.81,2,.98,0,1.81-.16,2.5-.48.38-.16.78-.37,1.19-.64.41-.27.84-.6,1.3-.98v3.37c-1.6.91-3.27,1.36-5.03,1.36-2.64,0-4.9-.92-6.76-2.76-1.86-1.86-2.78-4.1-2.78-6.72,0-2.35.77-4.45,2.33-6.29,1.91-2.26,4.39-3.39,7.43-3.39,1.66,0,3.26.45,4.81,1.35"/><rect class="cls-3" x="326.12" y="25.49" width="2.79" height="18.47"/><path class="cls-3" d="M343.71,39.48h-7.91l-2.06,4.48h-3l9.14-19.63,8.82,19.63h-3.05l-1.93-4.48ZM342.57,36.86l-2.74-6.28-2.87,6.28h5.61Z"/><path class="cls-3" d="M359.49,28.23l-2.26,1.34c-.42-.73-.83-1.21-1.21-1.44-.4-.25-.91-.38-1.54-.38-.77,0-1.42.22-1.92.66-.51.43-.77.97-.77,1.63,0,.9.67,1.63,2.01,2.18l1.84.76c1.5.61,2.6,1.35,3.29,2.22.7.87,1.04,1.95,1.04,3.21,0,1.7-.57,3.11-1.7,4.21-1.14,1.12-2.56,1.68-4.25,1.68s-2.93-.48-3.97-1.43c-1.03-.95-1.67-2.29-1.93-4.01l2.82-.62c.13,1.09.35,1.84.67,2.25.57.8,1.41,1.19,2.51,1.19.87,0,1.59-.29,2.16-.87.57-.58.86-1.32.86-2.21,0-.36-.05-.69-.15-.99-.1-.3-.26-.57-.47-.82-.21-.25-.49-.49-.82-.7-.33-.22-.73-.43-1.19-.63l-1.78-.74c-2.53-1.07-3.79-2.63-3.79-4.68,0-1.39.53-2.55,1.59-3.48,1.06-.94,2.38-1.41,3.96-1.41,2.13,0,3.79,1.03,4.99,3.1"/><polygon class="cls-3" points="113.96 69.01 117.85 49.15 124.19 63.51 130.76 49.15 134.25 69.01 131.39 69.01 129.61 57.86 124.14 69.86 118.83 57.85 116.85 69.01 113.96 69.01"/><path class="cls-3" d="M148.03,64.52h-7.91l-2.06,4.49h-3l9.14-19.63,8.82,19.63h-3.05l-1.94-4.49ZM146.9,61.9l-2.74-6.28-2.87,6.28h5.61Z"/><polygon class="cls-3" points="158.91 53.16 158.91 69.01 156.12 69.01 156.12 53.16 151.88 53.16 151.88 50.54 163.15 50.54 163.15 53.16 158.91 53.16"/><polygon class="cls-3" points="175.83 53.16 168.42 53.16 168.42 57.6 175.62 57.6 175.62 60.22 168.42 60.22 168.42 66.39 175.83 66.39 175.83 69.01 165.64 69.01 165.64 50.54 175.83 50.54 175.83 53.16"/><polygon class="cls-3" points="178.36 69.01 182.24 49.15 188.58 63.51 195.15 49.15 198.64 69.01 195.78 69.01 194 57.86 188.53 69.86 183.22 57.85 181.24 69.01 178.36 69.01"/><path class="cls-3" d="M212.92,64.52h-7.91l-2.06,4.49h-3l9.14-19.63,8.81,19.63h-3.05l-1.94-4.49ZM211.78,61.9l-2.74-6.28-2.87,6.28h5.61ZM213.32,45.58l-4.88,3.3-1.33-1.12,3.84-3.85,2.37,1.66Z"/><polygon class="cls-3" points="223.79 53.16 223.79 69.01 221.01 69.01 221.01 53.16 216.76 53.16 216.76 50.54 228.03 50.54 228.03 53.16 223.79 53.16"/><rect class="cls-3" x="230.52" y="50.54" width="2.79" height="18.47"/><path class="cls-3" d="M250.41,51.53v3.29c-1.61-1.35-3.28-2.02-5-2.02-1.9,0-3.5.69-4.8,2.05-1.31,1.36-1.96,3.02-1.96,4.98s.65,3.57,1.96,4.9c1.31,1.33,2.91,2,4.81,2,.98,0,1.81-.16,2.5-.48.38-.16.78-.37,1.19-.65.41-.27.84-.6,1.3-.98v3.37c-1.59.9-3.27,1.36-5.03,1.36-2.64,0-4.89-.92-6.76-2.76-1.86-1.86-2.79-4.1-2.79-6.72,0-2.35.78-4.45,2.33-6.29,1.91-2.25,4.39-3.39,7.43-3.39,1.66,0,3.26.45,4.81,1.35"/><path class="cls-3" d="M263.75,64.52h-7.91l-2.06,4.49h-3l9.14-19.63,8.82,19.63h-3.05l-1.94-4.49ZM262.61,61.9l-2.74-6.28-2.87,6.28h5.61Z"/><path class="cls-3" d="M280.02,53.28l-2.26,1.34c-.42-.73-.82-1.21-1.21-1.43-.4-.25-.91-.39-1.54-.39-.77,0-1.42.22-1.92.66-.51.43-.76.97-.76,1.63,0,.9.67,1.63,2.01,2.18l1.84.75c1.5.61,2.6,1.35,3.29,2.22.69.88,1.04,1.95,1.04,3.22,0,1.7-.57,3.1-1.7,4.21-1.14,1.12-2.55,1.68-4.25,1.68-1.6,0-2.93-.48-3.97-1.43-1.03-.95-1.67-2.29-1.93-4.01l2.82-.62c.13,1.08.35,1.84.67,2.25.58.8,1.41,1.2,2.51,1.2.87,0,1.59-.29,2.16-.88.57-.58.86-1.32.86-2.21,0-.36-.05-.69-.15-.99-.1-.3-.26-.57-.47-.83-.21-.25-.49-.48-.82-.7-.33-.22-.73-.43-1.2-.62l-1.78-.74c-2.53-1.07-3.79-2.63-3.79-4.69,0-1.39.53-2.55,1.59-3.48,1.06-.94,2.38-1.41,3.96-1.41,2.13,0,3.79,1.03,4.99,3.1"/></g></svg>