<?xml version="1.0" encoding="UTF-8"?><svg id="Capa_2" xmlns="http://www.w3.org/2000/svg" viewBox="0 0 116.12 121.68"><defs><style>.cls-1{fill:#575756;}</style></defs><g id="Layer_3"><path id="path2235" class="cls-1" d="M61.82,121.62c-.76-.14-1.22-.47-2.13-1.54-.89-1.04-1.33-1.42-2.08-1.8-.46-.23-.91-.23-.91,0,0,.07.18.38.4.7.39.58.47.79.31.89-.12.07-2.58-.21-3.09-.35-.22-.06-.68-.26-1.02-.46-.34-.19-.87-.44-1.19-.54s-.74-.32-.95-.46c-.37-.25-.39-.26-.54-.08-.08.11-.31.55-.51,1-.29.66-.36.94-.35,1.52.01.69,0,.72-.29.83-.45.16-1.06-.14-1.68-.82-.28-.31-.58-.56-.66-.56s-.38.1-.66.21c-.34.14-.95.24-1.76.31-1.41.11-1.82.27-2.1.82-.53,1.04-1.09-.5-.58-1.6.11-.23.64-.85,1.18-1.37,1.22-1.17,1.37-1.37,1.37-1.86,0-.55-.36-.94-.87-.94-.47,0-2.17.89-3,1.58-.37.31-.63.43-.87.43-.19,0-.86.1-1.49.23-1.1.22-1.16.24-1.55.69-.22.25-.44.46-.49.46s-.27-.14-.49-.3c-.36-.27-.53-.31-1.46-.36-.9-.05-1.16-.03-1.76.17l-.71.23-.43-.38c-.28-.25-.98-.61-2.04-1.04l-1.61-.66-.25-.6c-.44-1.03-.9-1.78-1.21-1.93-.5-.25-2.64-.17-3.6.13-.71.22-.82.3-1.03.67-.28.5-.5.57-.94.27-.3-.2-.49-.22-1.91-.22s-1.62.02-2.12.27l-.54.27-.4-.28c-.29-.21-.6-.3-1.15-.36-.41-.04-1.17-.14-1.69-.22-.72-.1-1-.11-1.22-.01-.55.23-.81.16-1.18-.34-.34-.46-.88-.75-1.2-.63-.09.03-.29.38-.45.77-.53,1.29-.62,1.33-1.93.96l-.76-.22-.33.29c-.4.36-.48.57-.33.93.09.23.07.32-.11.49-.35.33-.46.28-1.17-.55-.55-.65-.55-.9,0-1,.6-.1.79-.21.99-.58.19-.35.12-.56-.42-1.18-.24-.28-.24-.3-.05-.76.22-.55.73-1,1.55-1.39.92-.43,1.01-1.02.21-1.27-.69-.22-.7-.4-.07-1.32.22-.32.25-.52.26-1.39,0-1.14.06-1.27.71-1.45.41-.11,1.84-1.03,2.01-1.29.15-.22-.07-.62-.65-1.22-.63-.64-1.1-.89-1.68-.89-.5,0-.75-.16-.9-.57-.19-.53-1.5-1.44-2.09-1.44-.34,0-.56-.28-.74-.92-.17-.6-1.02-1.66-1.48-1.83-.45-.17-.57-.45-.43-1,.15-.61,0-1.94-.26-2.34-.3-.46-.28-.83.06-.97.29-.12.58-.56.76-1.12.13-.43-.05-.66-.98-1.24C.37,90.62,0,90.21,0,89.88c0-.08.2-.42.45-.77.25-.35.45-.74.45-.88,0-.33-.2-.65-.4-.65-.09,0-.22-.1-.29-.22-.1-.18-.09-.28.09-.5.28-.35,1.02-.75,1.4-.75.53,0,.63.27.39,1-.14.42.18.62,1.13.7,1.12.1,1.25.21,1.4,1.25.07.5.18.84.3.91.22.15,1.94.4,2.1.3.06-.04.11-.24.11-.46,0-1.05.64-2.07,1.55-2.44.28-.12.87-.46,1.32-.76.9-.61,1.35-.76,1.84-.64.45.11.64.48.59,1.09-.07.78-.03.8,1.3.51.97-.21,1.27-.33,1.8-.7.79-.55,1.1-.67,1.82-.67,1,0,1.8.58,1.8,1.29,0,.13-.1.4-.23.59-.19.3-.29.35-.59.32-.29-.03-.4-.12-.59-.46-.24-.44-.62-.59-.96-.38-.13.08-.09.21.27.7.32.45.47.8.57,1.37.1.56.22.85.44,1.07.16.17.33.4.37.51.04.12.29.43.57.7.28.27.82.98,1.21,1.58.74,1.15.99,1.39,1.26,1.21.09-.06.68-.44,1.33-.85.72-.46,1.28-.9,1.46-1.15.16-.23.71-.81,1.22-1.3.88-.83.96-.88,1.41-.88.82,0,1.4.35,1.85,1.1.37.61.45.68,1.28,1.04.95.41,1.28.7,3.02,2.61.49.54,1.07,1.1,1.28,1.25l.39.28.33-.3c.18-.16.42-.47.52-.68.27-.54.91-1.26,1.3-1.44.19-.09.63-.16,1.08-.16.49,0,1.08-.09,1.69-.27.89-.26.99-.27,2.29-.17,1.12.08,1.46.15,1.97.39.69.33,1.96,1.42,2.58,2.22.98,1.27,1.34,1.58,2.92,2.55,1.47.9,3.29,1.73,5.27,2.4.92.31,2.19.5,3.44.5,1.22,0,1.23,0,1.98-.41,1.31-.72,1.92-.91,2.8-.92,1.03,0,1.36.13,3.6,1.51,1.8,1.11,2.22,1.29,2.88,1.29.5,0,.72-.24.72-.8,0-.38.07-.54.38-.86.21-.22.6-.77.88-1.22,1.17-1.94,2.51-3.25,4.02-3.94.63-.28,1.03-.38,1.93-.48.62-.06,1.22-.14,1.33-.17.3-.08,1.21-1.28,1.29-1.71.11-.58.23-.74.64-.82.2-.04.63-.21.95-.38.32-.17.7-.31.86-.31.31,0,2.55,1.49,2.67,1.76.04.09,0,.32-.08.5-.38.85-.6,1.54-.65,2.04-.06.54-.08.56-.58.78-.29.12-.65.28-.8.35-.35.16-.53.58-.63,1.5-.04.41-.17,1.17-.29,1.69-.11.52-.18,1.11-.15,1.29.09.56-.04.8-.56,1.06-.51.25-1.18,1.02-1.91,2.18-.36.58-.51.7-1.58,1.3-.85.48-1.41.71-2.03.85-.52.11-1.01.3-1.25.48-.22.16-.75.51-1.18.78-1.16.74-1.31,1.21-.4,1.21.71,0,1.29-.18,1.72-.53.31-.25.44-.3.77-.25.58.09,1.84-.47,2.45-1.09.47-.48.48-.49,1.05-.42.53.06.62.03,1.21-.36.58-.38.71-.42,1.33-.42.53,0,.79-.06,1.14-.26.25-.14.62-.26.82-.26.53,0,.91-.2,1.04-.55.06-.17.22-1.12.36-2.13.13-1,.34-2.04.45-2.3.11-.26.39-.88.61-1.37.22-.49.41-1.04.41-1.22,0-.22.11-.42.35-.63.19-.17.86-.94,1.48-1.7,1.04-1.28,1.2-1.43,2.02-1.88.49-.27.95-.48,1.02-.48s.78-.23,1.58-.52c2.83-1.02,4.68-.95,6.77.25.74.43,1.64.43,2.6.03.74-.32,2.11-1.5,2.11-1.83,0-.24-.31-.41-.93-.52-.21-.04-.54-.18-.72-.31-.27-.2-.33-.32-.31-.65,0-.22.12-.61.24-.87.33-.67.12-1.09-.61-1.27-.5-.12-.47-.44.07-.9.25-.21.53-.39.62-.39s.21.19.28.46c.2.74.41.85,1.46.75,1.45-.14,1.74-.04,1.98.72.25.78.28.77,2.04-.26.54-.32,1.29-.68,1.67-.82l.69-.24v-.54c0-.72.17-1.26.52-1.64.41-.45.67-.49,1.31-.21.64.28,1.03.19,1.25-.27.11-.23.09-.34-.13-.7-.21-.35-.24-.48-.14-.69.16-.33.42-.32.96.02.23.15.64.34.9.42.58.19.77.33.77.58,0,.23-.32.41-.72.41-.44,0-.63.11-.81.43-.24.44-.21.59.23,1.12.53.64.53,1.02,0,1.6-.22.24-.47.44-.55.44-.21,0-.63.46-.63.69,0,.11.1.54.23.95.31,1,.31,1.95,0,2.73-.62,1.52-3.33,3.41-5.73,3.99-.71.17-1.47.24-3.55.31-3.01.1-3.02.1-3.5.98-.74,1.37-2.43,3-3.9,3.75-.34.18-1.54.62-2.66.98-1.12.36-2.37.81-2.78,1-1.4.66-2.5,1.58-2.5,2.1,0,.3.89.8,1.41.8,1.04,0,3.82-.5,5.91-1.07,1.65-.44,2.97-.63,4.54-.63,1.22,0,1.53.04,2.56.32.65.18,1.56.36,2.03.4l.85.07.31.56c.17.31.53.85.81,1.22.27.36.59.82.7,1.03.11.2.34.48.52.62.34.26.42.61.21.97-.06.11-.19.55-.28.97-.09.42-.28,1.1-.42,1.51-.21.61-.32.77-.6.89-.19.08-.54.32-.79.54-.65.57-.8.62-1.39.5-.66-.13-1.71.05-2.45.43-.37.19-.59.24-.69.18-.68-.47-.82-.52-1.54-.56-.54-.03-.86,0-1.11.13-.52.25-.66.22-1.21-.3-.63-.6-1.01-.75-1.54-.58-.22.07-.55.11-.74.09-.31-.03-.34-.08-.39-.51-.05-.41-.13-.52-.56-.83-.42-.3-.58-.35-1.03-.33-.42.02-.61-.03-.92-.24-.47-.32-1.03-.51-1.53-.51-.42,0-.73.32-1,1.04-.16.41-.9,1.59-1.36,2.16-.14.17-.85.58-1.71.99-2.69,1.28-3.66,1.52-6.06,1.52-1.98,0-3-.17-5.9-.97-2.34-.65-3.43-.82-5.14-.83-.43,0-.86.04-.97.1-.11.06-.41.36-.67.68-.26.32-.96.94-1.55,1.38-.96.71-1.07.82-.96,1.01.23.4,1.01.82,1.89,1.01.89.2,1.08.34.82.64-.59.66-2.71.83-4.07.33-.41-.15-1.11-.44-1.58-.65-.46-.21-.88-.35-.94-.32-.06.03.02.26.18.5.15.25.25.5.2.56-.12.17-.7.23-1.25.13ZM65.54,120.31s-.38-.35-.84-.71c-.46-.37-1.29-1.02-1.85-1.46-1.25-.99-2.68-1.69-4.17-2.05-1.11-.27-2.46-.35-2.77-.17-.21.13-.32,1.07-.13,1.17.08.05.34.06.57.03.45-.06,1.31.16,2.08.52.63.3,1.45,1.05,2.01,1.84.71,1.01.96.84.77-.54-.03-.23,0-.32.14-.35.1-.02,1.02.37,2.04.86,1.69.82,2.14,1,2.14.86ZM49.13,119.01c.38-1.25.57-2.38.47-2.88-.09-.49-.53-1.18-.97-1.53-.2-.15-1.24-.68-2.31-1.17-1.71-.78-2.02-.96-2.53-1.47-.71-.72-1.27-1.74-1.27-2.3,0-.37.02-.4.21-.31.11.06.41.42.65.81.76,1.21,1.92,1.98,4.47,2.99,1.65.65,2.47,1.13,3.36,1.94.86.8,1.08.85,1.29.34.29-.72-.14-1.57-1.17-2.28-1.04-.72-1.14-.75-2.67-.83-1.2-.06-1.43-.1-1.57-.27-.09-.11-.14-.25-.12-.31.13-.39,1.84-.6,3.05-.38,1.34.24,2.35.92,3.31,2.22.25.34.35.6.38,1.07.06.79-.23,1.4-.99,2.03-.63.53-.76.78-.49.92.24.12.86-.06,1.37-.4.63-.42.95-.92,1.09-1.68l.12-.71h1.07c1.31-.02,1.88-.11,1.97-.33.11-.27-.03-.36-.53-.36-.67,0-1.04-.25-2.23-1.51-1.83-1.94-2.75-2.2-6.33-1.76-.89.11-1.22.1-2.11-.04-2.16-.34-3.16-.94-3.53-2.12-.24-.77-.17-1.76.15-2.17.82-1.03,2.37-1.1,3.16-.15.32.39.49.41.62.06.12-.31-.26-.98-.73-1.28-.42-.27-1.31-.41-1.93-.3-.53.09-1.48.8-1.9,1.42-.55.8-.82,1.8-.73,2.64.18,1.56.84,2.81,2.64,5.02,1.76,2.15,1.8,2.83.27,4.48-.38.42-.7.81-.7.87,0,.21.48.36.98.29.98-.12,1.62-.59,2.14-1.55.16-.29.2-.6.18-1.39-.02-1.07.1-1.36.5-1.22.4.14.53.79.55,2.56.01,1.27.05,1.75.17,1.88.09.1.19.17.23.17s.21-.46.39-1.03ZM55.68,118.72c0-.09-.18-.32-.4-.53-.44-.41-.97-.5-1.36-.21-.21.15-.21.17.11.41.56.43,1.66.65,1.66.33ZM66.54,117.65c1.26-.58,1.76-1.18,1.6-1.95-.16-.79-.12-1.54.12-2.11.29-.68.29-1.44.01-1.83-.66-.94-2.51-1.67-4.25-1.69h-.89s-2.57,1.21-2.57,1.21c-1.41.67-2.74,1.27-2.95,1.34-.57.18-.44.45.38.73,1.34.47,1.33.46,1.13,1.42l-.08.39.64.17c.6.16.67.16,1.15,0,.74-.26,1.13-.09,1.33.57.14.46.24.55,1.39,1.32,1.23.82,1.25.83,1.8.77.31-.03.84-.19,1.18-.34ZM65.21,115.87c-.22-.25.14-.69.57-.69.06,0,.15.1.22.21.26.46-.43.88-.79.48ZM64.5,114.43c-.23-.12-.27-.63-.06-.82.07-.07.24-.13.37-.13.53,0,.7.6.26.89-.29.19-.31.19-.57.05ZM61.15,113.84c-.19-.07-.18-.62.02-.77.37-.28.89.22.7.68-.06.15-.43.2-.72.09ZM65.88,112.86c-.18-.17-.33-.39-.33-.48,0-.19.49-.69.68-.69.07,0,.25.12.4.26.35.33.39.95.06,1.11-.33.17-.45.14-.81-.2ZM62.14,111.79c-.34-.32-.24-.64.26-.82.58-.21.77-.11.77.39,0,.34-.05.43-.29.53-.39.17-.47.16-.74-.1ZM36.87,117.03c.93-.15,3.06-.89,4.32-1.51.91-.44,1.67-1.09,1.67-1.43,0-.13-.28-.69-.63-1.24-.37-.59-.77-1.43-.97-2.04-.25-.74-.42-1.08-.61-1.19-.39-.24-3.74-1.26-4.6-1.41-.41-.07-1.47-.17-2.37-.21-1.91-.1-2.77.01-4.03.56-1.06.46-1.51.94-1.98,2.13-.51,1.3-.46,1.96.23,3.26.62,1.17,1.29,1.83,2.32,2.31.81.38,2.09.77,3.01.93.63.11,2.49.03,3.64-.16ZM34.75,115.76c-.38-.54.18-1.39.73-1.12.51.25.6.8.2,1.15-.35.3-.71.29-.94-.03ZM30.22,114.68c-.29-.42-.12-.82.38-.86.69-.06.94.47.44.91-.35.3-.58.29-.82-.05ZM38.84,113.1c-.12-.12-.17-.31-.15-.61.03-.36.09-.46.36-.58.29-.13.36-.12.62.06.43.3.43.58.01.97-.4.37-.58.41-.85.16ZM34.05,112.99c-.42-.19-.54-.43-.38-.81.21-.52.71-.46,1.46.17.3.25.32.42.08.65-.23.21-.68.21-1.15,0ZM34.99,111.34c-.34-.45-.13-1.15.39-1.28.32-.08.91.39.91.73s-.48.78-.84.78c-.16,0-.36-.1-.46-.24ZM30.17,110.8c-.22-.39-.11-.83.25-1.02.73-.38,1.36.56.7,1.04-.4.3-.77.29-.94-.02ZM84.33,116.82c.82-.15,2.29-.78,3.22-1.36,1.59-1.01,2.92-2.71,2.5-3.19-.07-.08-.41-.23-.74-.32-.84-.23-1.14-.59-1.24-1.47-.09-.78,0-1.57.24-2.01.21-.38.14-.54-.31-.76-.47-.23-2.51-.23-3.43,0-1.15.28-3.58,1.17-6.05,2.21-2.79,1.17-3.3,1.33-6.12,1.87-2.28.43-2.49.52-3.04,1.25-.37.49-.53,1.41-.31,1.79.17.29.86.42,2.81.51l1.6.07.3-.44c.25-.36.33-.42.5-.34.33.16.49.41.42.62-.05.15.04.25.42.42,1.21.56,2.94,1.05,4.4,1.25,1.27.17,3.63.12,4.83-.1ZM81.12,115.97c-.18-.25-.17-.28.01-.48.29-.3.67-.27.83.06.29.6-.46.97-.85.41ZM76.72,114.74c-.45-.5-.38-.69.36-.92.32-.1.4-.09.6.09.29.27.28.64,0,.93-.32.32-.6.29-.95-.09ZM84.87,113.85c-.17-.25-.17-.28,0-.54.23-.33.51-.3.74.08.16.26.15.3-.04.5-.28.29-.47.28-.7-.05ZM79.86,113.67c-.17-.16-.18-.79-.02-.88.23-.13.66.06.82.37.15.28.15.33-.03.48-.23.2-.59.21-.78.04ZM74.17,112.78c-.13-.15-.24-.34-.24-.41,0-.19.66-.68.91-.68.33,0,.59.31.51.61-.2.76-.76.99-1.19.49ZM79.38,111.61c-.6-.2-.79-.91-.3-1.08.41-.14.71-.02.91.37.22.44.22.47-.02.65-.21.15-.33.16-.6.07ZM83.4,110.56c-.37-.38-.37-.75.01-.84.67-.16,1.21.48.78.91-.27.28-.46.26-.8-.07ZM104.07,114.53c1.89-.2,2.86-.7,3.56-1.84.75-1.22.21-3.07-1.32-4.46-.7-.64-1.26-.91-2.49-1.21-2.19-.54-4.99-.31-8.33.71-1.56.47-2.17.6-3.65.77-1.47.17-1.87.25-2.28.47-.62.34-.88.79-.75,1.3.14.58.38.69,1.75.83,1.99.2,3.85.78,6.07,1.9,2.04,1.03,2.93,1.32,4.65,1.53,1.06.13,1.58.13,2.8,0ZM101.63,113.41c-.11-.04-.48-.68-.48-.84,0-.02.11-.09.24-.15.19-.09.26-.08.37.04.07.09.23.17.36.19.15.02.24.13.26.34.05.41-.28.59-.75.42ZM104.81,112.83c-.22-.21-.18-.91.07-1.03.27-.13.93.22.93.5,0,.44-.69.81-.99.53ZM99.59,111.46c-.25-.23-.17-.61.15-.68.36-.08.76.22.71.53-.04.26-.63.36-.86.15ZM96.07,110.89c-.31-.2-.33-.59-.04-.82.31-.26.56-.21.75.14.23.42.22.61-.05.74-.29.15-.37.14-.66-.06ZM102.19,110.47l-.23-.37.29-.32c.32-.36.55-.4.92-.15.33.22.33.68-.01.98-.38.34-.7.29-.97-.14ZM93.55,109.99c-.59-.29-.73-.48-.58-.79.07-.14.26-.29.42-.33.59-.14,1.09.68.71,1.15-.13.16-.17.16-.55-.03ZM99.61,108.46c-.1-.36.11-.8.37-.8.27,0,.67.32.76.6.09.27.02.32-.59.41-.44.07-.47.05-.54-.22ZM8.1,113.67c.37-.5.07-1.61-.47-1.74-.57-.13-1.74.49-1.59.85.11.26,1.36,1.12,1.63,1.12.14,0,.33-.11.43-.23ZM20.32,113.64c.7-.09,1.79-.28,2.42-.42.62-.15,1.59-.3,2.15-.33.56-.04,1.08-.11,1.16-.17.08-.06.14-.25.14-.44,0-.18.08-.65.17-1.05.09-.39.14-.79.1-.87-.03-.08-.35-.25-.7-.37-1.32-.46-1.86-.87-3.71-2.82-.79-.83-1.59-1.57-1.8-1.66-.6-.26-3.27-.8-3.99-.8-.82,0-1.49.29-1.84.8-.16.24-.33.36-.45.34-.17-.03-.19-.19-.16-1.46l.04-1.43-.68-1.85c-1.2-3.27-3.56-7.43-4.95-8.73-1.02-.95-2.83-1.42-3.75-.97-.82.4-1.38,1.25-1.65,2.47-.25,1.14.18,2.72,1.08,3.99.6.84,2.19,2.22,3.81,3.29,1.59,1.05,2.86,2.21,3.33,3.01.47.8.4.94-.7,1.45-1.11.51-1.73,1.04-2.15,1.84-.26.51-.3.71-.3,1.59,0,1.17.15,1.53,1.05,2.45.55.56,1.83,1.35,2.93,1.81,1.08.45,5.99.65,8.45.35ZM17.53,112.3c-.43-.57,0-1.23.6-.94.31.15.33.75.03,1-.28.23-.43.22-.64-.06ZM13.79,111.49c-.18-.19-.18-.24-.03-.59.18-.4.35-.47.68-.25.15.1.19.25.16.56-.03.36-.08.42-.33.45-.18.02-.37-.05-.49-.17ZM22.1,111.22c-.17-.35-.04-.76.31-.98.37-.23.49-.08.5.61,0,.35-.05.51-.18.56-.33.12-.51.07-.63-.19ZM10.72,110.7c-.41-.28.15-1.11.58-.86.31.18.42.41.33.72-.06.22-.14.28-.39.28-.17,0-.41-.06-.52-.14ZM16.08,110.23c-.32-.35-.34-.46-.14-.67.48-.5,1.05,0,.78.69-.09.22-.42.21-.63-.02ZM18.99,109.53c-.31-.29-.36-.66-.13-.95.23-.3.67-.18.9.24.21.4.14.66-.25.86-.18.09-.28.06-.51-.15ZM10.24,108.64c-.39-.23-.35-1.09.05-1.23.21-.08.66.18.82.46.09.16.06.27-.18.53-.3.33-.45.38-.69.24ZM14.86,108.64c-.39-.12-.45-.61-.13-.98.21-.24.22-.24.52-.06.57.35.24,1.24-.39,1.04ZM17.92,107.03c-.32-.3-.3-.8.06-1.13.35-.33.55-.22.75.39.14.44.05.63-.37.85-.15.08-.26.05-.43-.11ZM11.38,100.61c-.33-.2-.32-1.08,0-1.08.25,0,.86.53.86.75,0,.31-.56.53-.86.34ZM8.89,100.39c-.26-.16-.4-.55-.27-.77.12-.2.14-.2.54-.05.56.22.63.3.55.62-.06.21-.14.27-.38.27-.17,0-.37-.04-.43-.08ZM5.33,98.04c-.27-.25-.29-.66-.05-.89.22-.21.39-.21.7,0,.33.22.35.84.03,1-.31.16-.43.14-.69-.1ZM7.88,97.37c-.18-.12-.2-.2-.11-.44.17-.44.43-.55.78-.33.49.3.34.92-.22.92-.13,0-.34-.07-.46-.15ZM4.33,94.85c-.18-.17-.17-.41.04-.7.23-.3.51-.3.82,0,.3.3.31.41.04.64-.24.2-.71.23-.9.05ZM6.66,93.59c-.27-.14-.25-.65.02-.88.45-.38.97.3.61.78-.18.24-.33.26-.63.1ZM58.13,111.12c.43-.14,1.46-.56,2.28-.95.82-.38,1.8-.79,2.18-.91.89-.28,2.02-.28,3.36,0l1.02.21.49-.5c.92-.94,1.96-3.44,1.69-4.09-.04-.1-.39-.32-.79-.51-.39-.18-.89-.46-1.11-.61-.93-.65-3.22-2.03-3.47-2.09-.52-.12-1.36.03-2.26.41-1.3.55-2.33.73-4.2.75-1.44.01-1.68-.01-2.57-.28-1.38-.41-1.38-.41-1.28.29.07.54.06.58-.16.58-.51,0-1.26-1.01-1.26-1.71,0-.21-.78-.7-2.25-1.42-1.65-.81-2.87-1.73-4.14-3.11-1.59-1.74-1.78-1.91-2.23-2.09-.54-.22-2.75-.3-3.66-.13-.38.07-1.1.17-1.59.21-.61.06-.96.15-1.12.28-.18.15-1.39,1.93-1.56,2.3-.02.05.05.18.16.29.15.16.35.21.85.21.88,0,1-.06,1.25-.6.14-.31.28-.46.42-.46.21,0,.48.39.48.7,0,.48,1,1.32,1.41,1.17.1-.03.17-.32.21-.8.06-.74.21-1.07.49-1.07.24,0,.31.31.37,1.62l.06,1.25.65.46c.36.26,1.45.87,2.43,1.37,2.13,1.08,6.61,3.74,7.99,4.74,1.36.99,2.59,2.14,3.38,3.17.78,1.02,1.32,1.56,1.54,1.56.09,0,.51-.11.95-.25ZM63,108.08c-.42-.44-.47-.65-.15-.71.26-.05.88.58.88.89,0,.38-.26.32-.73-.17ZM65.23,107.94c-.48-.38-.91-1.17-.76-1.4.2-.29.36-.28.68.04.42.42.95,1.31.88,1.48-.09.22-.44.17-.8-.12ZM54.2,107.01c-.37-.48-.4-.75-.07-.81.24-.04.6.24.83.65.39.7-.24.83-.76.15ZM56.84,106.25c-.79-.8-1.13-1.65-.67-1.65s1.44,1.18,1.44,1.77c0,.48-.21.45-.77-.12ZM66.56,106.06c-.64-.75-.93-1.32-.85-1.63.11-.41.37-.29.96.46.59.75.86,1.31.76,1.56-.12.29-.4.16-.87-.39ZM58.7,105.63c-.53-.85-.65-1.31-.35-1.42.38-.14,1.07.83,1.07,1.52,0,.52-.37.46-.72-.11ZM61.33,105.37c-.48-.53-.7-1.08-.59-1.48.14-.54.81-.1,1.07.7.24.73-.07,1.23-.48.78ZM63,104.15c-.2-.26-.24-.82-.06-.82.15,0,.56.64.56.87,0,.26-.29.23-.5-.05ZM48.51,103.59c-.55-.28-.72-.79-.25-.79.34,0,.88.46.82.71-.05.24-.21.26-.57.08ZM50.28,103.08c-.79-.74-.56-1.2.32-.64.54.35.83.72.74.94-.12.29-.55.17-1.05-.3ZM42.92,99.62c-.1-.18-.21-.59-.25-.91-.06-.53-.05-.57.18-.57.36,0,.61.45.63,1.14.01.49-.02.61-.18.64-.12.02-.26-.08-.38-.3ZM45.14,99.31c-.59-.76-.58-1.55.01-1.25.27.14.79,1.11.75,1.4-.06.39-.39.33-.76-.15ZM70.28,111.02c.14-.06.52-.47.84-.92,1.32-1.8,1.58-2,3.63-2.8.67-.26,1.48-.64,1.81-.85,2.2-1.37,4.4-4.03,4.78-5.8.18-.83.14-.96-.41-1.45l-.45-.4.54-.41c1.7-1.28,2.37-2.06,2.49-2.91.14-.94-.59-1.68-1.5-1.52-.69.12-1.62,1.07-1.79,1.81-.06.26-.01.4.21.65.4.44.36.61-.15.8-.24.09-.54.29-.67.43-.35.42-.67.35-.84-.16-.18-.56-.47-.66-1.6-.59-1.12.08-1.57.29-2.7,1.3-2.01,1.79-3.81,5.07-4.65,8.5-.17.67-.39,1.13-1.09,2.18-.27.41-.5.86-.49,1,0,.28.65.99,1.1,1.21.28.14.44.12.91-.08ZM71.24,107.54c-.32-.3-.08-.82.39-.82.3,0,.53.49.37.77-.12.21-.56.23-.75.05ZM75.59,105.35c-.26-.26-.15-.62.23-.78.24-.1.32-.08.53.11.23.22.24.25.08.52-.21.36-.57.42-.83.14ZM72.19,103.76c-.23-.24-.16-.59.16-.75.48-.24.83.24.52.69-.22.31-.42.33-.68.06ZM74.98,103.3c-.19-.09-.25-.19-.23-.39.03-.23.1-.28.44-.3.49-.04.73.17.62.56-.08.29-.38.34-.84.13ZM78.62,102.95c-.16-.39.46-.74.75-.42.1.12.11.21.01.38-.15.26-.66.29-.76.05ZM74.18,101.5c-.47-.47-.22-.96.46-.9.32.03.38.08.41.33.04.31-.11.54-.44.71-.14.07-.26.03-.43-.14ZM79.35,101.14c-.48-.12-.38-1,.14-1.2.41-.16.6-.05.78.42.09.25.07.35-.11.58-.22.26-.38.3-.81.2ZM76.84,100.63c-.39-.36-.15-.82.4-.77.32.03.39.08.42.31.02.2-.04.33-.22.45-.32.21-.37.21-.6,0ZM75.63,98.78c-.35-.61.27-1.26.86-.9.35.21.36.59.01.89-.33.29-.71.3-.87.01ZM82.07,95.64c-.16-.04-.2-.16-.2-.57,0-.46.04-.54.29-.65.25-.11.32-.09.57.14s.27.3.15.6c-.11.28-.43.59-.58.54-.02,0-.13-.03-.23-.06ZM54.32,110.21c0-.17-1.43-1.6-2.61-2.59-.64-.54-1.53-1.17-2.06-1.45-1.42-.75-1.33-.75-1.33.07,0,.5-.07.83-.23,1.13-.59,1.07-2.2,1.13-2.65.1-.32-.74-.78-.83-1.12-.21-.41.74-.05,1.74.74,2.09.98.43,1.59.49,3.77.4,2.89-.12,3.43-.09,4.46.26,1.03.35,1.05.36,1.05.22ZM27.51,108.71c.18-.18.66-.55,1.07-.81.41-.27.76-.5.78-.52.03-.02-.03-.12-.13-.22-.28-.3-.35-.65-.2-1.13.15-.51.5-.78.75-.58.11.09.16.36.16.89,0,.42.03.79.06.82s.4,0,.82-.08c.42-.08.95-.14,1.17-.14.57,0,.99-.34,1.08-.86.08-.45.32-.73.5-.56.06.05.18.29.26.51.17.47.38.56,1.43.61l.63.03v-.69c.01-.72.09-.95.33-.95s.48.32,1.02,1.34l.51.96,1.09.44c.6.24,1.24.44,1.42.44.29,0,.34-.05.45-.45.36-1.3.67-1.86,1.46-2.65.59-.59,1.21-.95,1.94-1.13.28-.07.6-.17.72-.23.2-.1.2-.11,0-.31-.11-.11-.49-.36-.83-.56-2.26-1.25-2.85-1.6-3.41-2.02-1.65-1.27-1.81-1.33-4.33-1.62-1.04-.12-1.56-.43-1.97-1.19-.15-.28-.48-.72-.73-.99-.25-.27-.76-.86-1.12-1.31-.95-1.16-1.78-1.85-2.68-2.23-.82-.34-.87-.39-1.47-1.24-.4-.57-.68-.77-1.05-.77-.26,0-1.54,1.13-2.07,1.84-.21.28-.84.85-1.39,1.25s-1.47,1.13-2.04,1.61-1.63,1.25-2.35,1.71c-.72.46-1.66,1.06-2.1,1.34-.44.28-1.2.86-1.7,1.29l-.9.78.02.51c.03.57.32,1.74.48,1.89.22.2.77-.09,1.49-.79.78-.76.84-.8,1.12-.63.14.08.14.17.02.64-.08.3-.11.58-.05.63.13.11,1.32.43,1.61.43.13,0,.35-.14.48-.31.51-.65.87-.53.92.29q.03.6.68,1.01l.65.41.46-.39c.8-.67,1.05-.47.75.62-.28,1.05-.25,1.22.3,1.71.62.56,1.4,1.04,2.27,1.42.92.4,1.2.39,1.62-.02ZM25.44,107.61c-.11-.26.05-1.39.24-1.73.21-.38.5-.49.73-.28.15.14.15.28.05.96-.13.84-.36,1.21-.74,1.21-.12,0-.24-.07-.28-.17ZM39.67,106.64c-.35-.35-.69-1.17-.64-1.52.06-.41.47-.38.83.05.83,1.01.66,2.31-.19,1.47ZM27.81,104.04c-.19-.21-.39-2.17-.25-2.41.15-.27.47-.26.74,0,.26.27.39,1.94.17,2.31-.14.25-.48.3-.67.09ZM30.79,103.97c-.14-.15-.23-.43-.26-.85-.06-.81.03-1.16.32-1.16.39,0,.6.46.61,1.35.01.75,0,.82-.22.85-.13.02-.33-.07-.45-.19ZM33.78,104.04c-.25-.18-.5-.66-.66-1.28-.15-.56-.09-.86.16-.96.31-.11.48.05.82.76.4.82.51,1.21.41,1.44-.08.2-.48.21-.74.03ZM37.02,103.89c-.37-.08-.86-.57-1.15-1.18-.41-.85-.34-1.16.22-1.03.36.09,1.69,1.52,1.64,1.79-.04.26-.41.48-.71.42ZM39.79,103.3c-.51-.4-1.46-1.66-1.46-1.93s.42-.46.72-.3c.34.18,1.78,1.99,1.75,2.2-.05.31-.63.33-1.01.03ZM24.89,103.12c-.15-.43.37-1.76.66-1.67.39.12.08,1.8-.35,1.86-.16.02-.26-.04-.31-.19ZM22.3,102.41c-.27-.25.11-1.1.57-1.29.33-.14.44.04.33.52-.13.62-.62,1.04-.9.77ZM19.73,101.28c0-.19.74-1.08.97-1.17.54-.19.53.22-.02.84-.41.46-.95.65-.95.32ZM30.57,99.81c-.3-.68-.53-1.58-.47-1.82.07-.27.48-.45.65-.29.14.13.66,1.78.66,2.1,0,.23-.19.36-.53.36-.09,0-.24-.15-.32-.34ZM17.85,99.9c-.1-.23.24-.68.58-.76.63-.15.84.22.31.57-.48.31-.81.38-.89.19ZM28.33,99.66c-.18-.19-.43-1.21-.43-1.73,0-.4.39-.61.67-.36.22.19.46,1.04.46,1.65,0,.3-.06.44-.22.52q-.28.14-.48-.08ZM32.96,99.61c-.28-.4-.64-1.34-.64-1.66s.21-.47.5-.37c.21.07,1.01,1.76.96,2.01-.06.31-.61.32-.82.02ZM25,99.31c-.12-.18.04-.59.54-1.43.49-.82.79-.99,1.11-.62.24.27-.06,1.26-.54,1.75-.4.41-.94.56-1.11.3ZM23.27,98.34c-.28-.26-.14-.59.46-1.08.67-.55,1.13-.62,1.2-.18.05.32-.62,1.14-1.05,1.29-.41.14-.45.14-.61-.02ZM21.17,97.87s-.08-.23-.08-.41c0-.61,1.16-1.35,1.81-1.15.34.1.28.32-.25.86-.63.64-1.25.93-1.49.71ZM88.74,105.35c1.39-1.25,2.18-1.71,4.49-2.6,2.66-1.02,4.05-1.63,4.69-2.02,1.12-.69,2.37-2.14,2.15-2.48-.04-.06-.32-.22-.63-.37-.34-.16-.61-.37-.67-.53-.06-.15-.11-.73-.11-1.29,0-.56-.04-1.08-.09-1.15-.17-.25-.89-.44-1.96-.51-1.02-.07-1.14-.05-2.47.31-1.66.46-2.65.86-3.45,1.4-.79.53-1.94,1.56-2.4,2.15-1.2,1.52-2.36,4.71-2.52,6.89-.07,1.02-.06,1.04.7,1.16,1.05.16,1.03.17,2.27-.95ZM87.69,103.79c-.15-.06-.19-.43-.07-.71.11-.26.91-.23,1.07.04.27.47-.38.9-.99.67ZM90.29,101.83c-.07-.07-.14-.31-.14-.54,0-.41,0-.41.37-.34.37.07.77.32.77.49s-.45.51-.66.51c-.11,0-.27-.06-.34-.13ZM93.98,100.83c-.17-.16-.17-.2-.01-.51.16-.32.2-.34.58-.26.22.05.48.17.56.28.13.17.11.22-.15.43-.35.28-.73.31-.99.07ZM88.76,99.94c-.22-.12-.26-.43-.08-.74.08-.14.24-.2.49-.2.67,0,.86.46.34.84-.33.24-.46.26-.75.1ZM96.33,99.37c-.21-.14-.21-.16-.02-.53.16-.3.26-.38.51-.38.41,0,.59.17.59.55,0,.22-.07.32-.29.4-.39.14-.53.13-.79-.05ZM93.19,98.76c-.12-.18-.13-.31-.05-.53.11-.28.15-.29.69-.26.53.03.57.05.61.33.08.63-.89,1-1.25.47ZM95.17,97.17c-.29-.13-.3-.17-.14-.55.09-.22.19-.27.5-.27.79,0,.96.24.47.69-.3.28-.44.3-.83.13ZM92.56,96.96c-.21-.19-.16-.59.09-.82.33-.3.64-.27.85.1.24.44.22.59-.12.73-.37.16-.65.16-.82,0ZM15.94,98.93c.81-.56,2.15-1.45,2.97-1.97s1.53-1.05,1.57-1.15c.1-.3-.03-.54-.43-.78-.21-.12-.61-.59-.94-1.09-.51-.78-1.46-1.82-1.64-1.82-.04,0-.12.18-.17.39-.17.63-.67.88-1.76.88h-.89l-.44.56c-.24.31-.71.97-1.04,1.48-.58.89-.59.93-.41,1.16.58.75.56.71.43,1.1-.11.32-.08.48.16,1.08.37.92.56,1.18.87,1.18.14,0,.89-.44,1.73-1.01ZM15.98,96.29c-.2-.22-.28-1.33-.11-1.62.19-.33.66-.3.81.04.15.36.14,1.28,0,1.53-.14.25-.48.27-.68.04ZM18.09,96c-.42-.39-.63-1.14-.4-1.4.26-.3.64-.19.82.24.24.57.34,1.05.25,1.29-.1.3-.25.27-.68-.13ZM13.94,96.01c-.05-.49.21-1.21.51-1.44.21-.16.52-.12.66.1.15.22-.09,1-.37,1.27-.25.23-.78.28-.8.07ZM104.42,96.94c4.01-.16,7.28-1.54,8.33-3.52.34-.65.38-.8.38-1.68,0-1.15-.05-1.22-1.08-1.67-.97-.42-2.16-.46-2.95-.09-.49.23-1.84,1.29-4.31,3.4-.66.56-1.58,1.25-2.04,1.54-.82.5-.89.52-1.92.59-.91.07-1.1.11-1.28.31-.41.48-.16,1.1.48,1.18.35.05,2.42.02,4.4-.06ZM103.99,95.67c-.21-.24.13-.76.55-.84.19-.04.42-.04.52,0,.21.07.23.68.04.86s-.94.16-1.1-.02ZM106.16,95.48c-.18-.17-.17-.82.01-.89.25-.09.73.14.82.39.06.18.02.29-.17.43-.3.22-.47.24-.66.06ZM109.43,94.52c-.35-.17-.41-.43-.17-.77.16-.22.26-.26.66-.23.44.03.48.06.51.36.03.26-.03.38-.27.56-.36.26-.36.26-.73.09ZM106.95,93.35c-.09-.1-.1-.23-.02-.42.19-.47,1.03-.33,1.03.16,0,.35-.75.55-1.01.26ZM111.3,92.25c-.35-.07-.43-.19-.34-.54.11-.45.42-.59.85-.38.68.33.27,1.07-.51.92ZM108.7,91.88c-.28-.19-.19-.61.18-.81.29-.15.32-.14.6.09.34.3.37.59.07.74-.3.15-.6.14-.85-.03ZM12.25,94.84c.13-.13.61-.74,1.07-1.35.45-.61.94-1.21,1.08-1.32.29-.24.57-.71.57-.94,0-.3-.34-.49-.89-.49-.51,0-3.87.95-4.18,1.19-.3.22.54,1.43,1.2,1.76.37.18.58.42.58.66,0,.21.2.73.28.73.03,0,.16-.11.3-.24ZM16.36,91.7c.36-1.57.37-2.01.07-2.43-.42-.58-.91-.76-1.85-.7-1.28.08-2.3.43-2.86.98-.46.44-.62.78-.37.78.06,0,.6-.12,1.2-.26,1.37-.33,2.39-.35,2.8-.05.51.37.67,1.34.36,2.05-.2.44-.14.62.21.57.2-.03.27-.17.45-.93ZM105.68,91.39c.08-.15.06-.36-.11-.81-.35-.96-.51-1.04-1.33-.73-.45.17-1.01.8-.89,1,.04.06.34.18.66.27.32.09.72.23.87.31.39.21.65.19.79-.04ZM3.43,90.49c.05-.06.08-.37.09-.67,0-.49-.03-.57-.27-.65-.49-.17-1.77.24-1.77.57,0,.18.8.88,1.13,1,.29.1.65,0,.82-.24ZM10.14,90.76c.42-.09.5-.29.14-.37-.38-.09-.43-.28-.2-.76.19-.4.19-.43-.03-.89-.12-.26-.24-.49-.26-.52-.02-.02-.25.09-.51.25-.5.31-.46.48.11.48.24,0,.26.04.18.29-.05.16-.12.46-.16.66-.07.35-.1.37-.49.36-.37-.01-.4.01-.31.18.22.38.7.49,1.52.32ZM113.76,88.57c.47-.23.61-.54.36-.8-.23-.24-1.29-.76-1.76-.86-.48-.11-.69.16-.6.76.1.7.12.73.53.97.41.23.89.21,1.47-.07ZM53.67,96.25c-4.35-2.01-7.82-4.37-11.35-7.72-1.77-1.68-3.34-3.46-4.77-5.45-.74-1.02-2.48-3.83-3.16-5.08-.97-1.8-2.21-5.44-2.79-8.15-.71-3.34-.75-4.6-.66-21.23.07-12.78.1-14.59.25-14.68.12-.08,8.25-.09,26.31-.05,23.02.06,26.16.08,26.31.22.15.14.17,1.65.14,12.56-.05,16.8-.18,20.09-.92,23.04-.6,2.38-1.14,3.62-3.09,7.18-1.36,2.47-2.4,4.02-4.49,6.66-1.14,1.44-5.12,5.21-7.22,6.84-2.9,2.24-3.75,2.84-5.81,4.05-2.19,1.29-5.27,2.82-5.87,2.93-.28.05-.82-.16-2.86-1.11ZM58.36,95.75c2.12-1.02,3.6-1.87,5.82-3.35,2.59-1.72,4.11-2.93,6.56-5.25,5.28-4.99,8.1-8.83,10.27-14.01,1.27-3.02,1.77-4.69,1.99-6.57.21-1.75.35-11.42.31-21.7-.03-8.99-.05-10.19-.21-10.34-.16-.15-2.93-.17-25.64-.23l-25.47-.07-.13.23c-.1.17-.12,4.4-.1,16.49l.03,16.26.26,1.27c.47,2.32.91,3.85,1.96,6.66,1.69,4.56,5.13,9.58,9.15,13.34,1.6,1.49,2.73,2.38,4.62,3.65,3.56,2.37,5.81,3.61,7.43,4.09.41.12.81.24.91.27.38.11.62.03,2.23-.74ZM55.7,95.5c-.65-.17-1.3-.38-1.45-.47-.35-.21-.72-.77-.72-1.09,0-.3.36-.97.66-1.22q.23-.19-.1-1.06c-.36-.96-.34-1.31.09-1.41.61-.14.93.23,1.28,1.5.17.62.39.87.65.73.28-.16.31-.49.11-1.04-.27-.73-.14-.79.99-.45.53.16,1,.34,1.03.4.04.06-.01.3-.11.55-.1.25-.28,1-.41,1.68-.21,1.11-.22,1.27-.07,1.6.31.69-.11.75-1.95.28ZM55.95,94.38c.3-.73-.33-1.35-.78-.76-.22.3-.22.32.06.65.26.31.61.37.72.11ZM61.69,91.53c-1.3-.66-1.87-.89-2.18-.89-.84,0-.7-.26.63-1.18,1.08-.75,1.29-.78,1.39-.19.12.7.26.71,1.24.09.48-.31.98-.68,1.1-.84.21-.26.21-.29.03-.61-.24-.43-.17-.61.4-1.05.66-.51.98-.3.68.45-.14.35-.42,1.86-.63,3.4-.17,1.27-.37,1.75-.71,1.73-.11,0-.99-.41-1.95-.9ZM63.62,90.58c.06-.15.14-.39.18-.53.06-.24.04-.26-.34-.26-.84,0-.88.99-.04,1.05.05,0,.14-.11.2-.26ZM48.17,92.14c-.29-.06-.26-.51.14-2.26.19-.82.34-1.77.34-2.11s.05-.64.12-.68c.17-.1,1.04.32,1.41.68.32.31.32.31.13.69-.26.5-.15.75.48,1.12.68.4.99.4,1.21,0,.2-.37.39-.39,1.05-.11.79.34.63.62-.51.89-1.08.26-2.49.85-3.05,1.28-.52.4-.98.57-1.32.5ZM50.58,90.37c.08-.05.04-.16-.13-.33-.28-.28-.55-.32-.76-.13-.18.17-.17.58,0,.64.15.05.67-.06.88-.19ZM55.04,90.07c-2.14-.89-4.41-2.41-7.03-4.7-2.44-2.13-3.1-2.81-4.29-4.4-1.2-1.61-1.72-2.44-2.81-4.44-1.6-2.96-2.34-4.88-2.87-7.35l-.3-1.43.07-12.43c.08-13.98.11-15.06.42-15.35.2-.19.8-.2,18.72-.18,10.18,0,18.87.04,19.31.08,1.32.11,1.23-.57,1.08,8.55-.2,12.42-.34,18.41-.46,19.54-.2,1.93-.61,3.17-1.73,5.26-.89,1.66-2.61,4.24-3.76,5.64-1.7,2.06-4.83,5.2-7.02,7.02-1.45,1.21-3.51,2.57-4.96,3.28-1.5.73-2.91,1.28-3.27,1.27-.17,0-.67-.16-1.11-.35ZM57.88,89.11c1.48-.68,3.02-1.54,4.09-2.27.31-.22.98-.67,1.47-1.02,1.05-.73,4.03-3.42,5.15-4.65,1.8-1.98,4.24-5.17,5.25-6.86,2.47-4.13,2.48-4.17,2.69-18.84.16-10.96.15-14.59-.03-14.74-.17-.13-33.15-.31-33.69-.19l-.32.08.27.27c.41.41.9.64,1.5.71.38.05.67.16.94.38.21.17.59.41.84.53.68.32.79.56.66,1.36-.06.37-.08.88-.04,1.13.18,1.13,1.67,2.06,2.59,1.62.14-.06.52-.36.84-.66.56-.51.63-.54,1.19-.54h.6s-.03.79-.03.79c-.02.44-.11,1.07-.21,1.42-.22.79-.13.89.9.98.42.04.8.12.86.18.05.06.16.43.24.8.27,1.33.53,1.54,1.77,1.44.81-.07.82-.07,1.3.3.26.21.51.37.55.37s.51-.17,1.04-.37c.53-.2,1.05-.37,1.15-.37.1,0,.42.12.71.26.66.33,2.86.8,3.74.8.64,0,.68.02,1.3.56.35.31.9.72,1.21.92.31.2.93.58,1.37.85.86.54,1.01.74,1.13,1.54.14.95.45,1.19,1.67,1.31.6.06.93.17,1.42.45.99.57,3.28,2.32,3.43,2.61.07.15.16.62.19,1.06.06.86.07.83-1.07,3.05-.37.71-.4.83-.34,1.48.1,1.19-.24,2.45-.78,2.88-.12.09-.76.35-1.44.58-1.5.51-1.84.76-2.88,2.18-.77,1.05-1.25,1.49-2.32,2.08-.23.13-.65.51-.92.84-.27.33-.91.95-1.43,1.38l-.93.78-.68-.03c-.37-.01-.66.01-.64.06.02.05.12.22.2.38.16.29.15.31-.61,1.01-.89.82-.9.84-1.08,1.57-.09.38-.31.75-.71,1.21-.32.36-.67.86-.78,1.1-.22.47-.51,2.57-.4,2.96.1.37-.25,1.22-.56,1.35-.62.26-2-.64-2.47-1.61-.19-.4-.24-.81-.31-2.54-.08-1.97-.07-2.1.18-2.86.36-1.09.51-2,.5-3.07,0-.79.06-1.08.52-2.43.43-1.24.56-1.8.68-2.96.14-1.32.36-2.27.79-3.33.28-.7.23-.86-.3-1.17-.6-.35-1.3-.96-1.5-1.32-.08-.15-.26-.66-.39-1.13-.33-1.21-.95-2.68-1.43-3.37l-.41-.59.12-.97c.17-1.32.41-2.04.85-2.55.59-.68,1.42-2.38,1.42-2.91,0-.09-.23-.42-.51-.72-.49-.53-.54-.55-1.38-.68-.75-.12-.93-.19-1.39-.57-.78-.65-1.71-1.17-2.46-1.37-1.18-.32-1.49-.47-1.79-.89-.16-.22-.47-.48-.71-.59-.38-.17-.51-.17-1.19-.05-.89.16-1.16.12-2.35-.32-1.06-.4-1.19-.5-2.07-1.75-.61-.87-.76-1.18-1.23-2.66-.52-1.64-.8-2.28-1.03-2.41-.28-.16-.2.32.27,1.54.66,1.72.84,2.47.65,2.68-.21.24-.41.11-.97-.63-.41-.53-.51-.76-.51-1.1,0-.49-.17-.92-.62-1.59-.64-.95-.62-1.32-.62,12.53,0,13.66-.02,13.25.63,15.65.64,2.37,2.61,6.58,4.04,8.65,1.48,2.14,2.96,3.82,4.92,5.59,1.49,1.34,2.38,2,4.41,3.24,1.37.83,3.38,1.84,3.68,1.84.09,0,.83-.3,1.64-.68ZM69.76,56.72c-.19-.07-.37-.52-.29-.72.09-.22.42-.2.65.03.22.23.24.46.05.63-.15.14-.18.14-.41.05ZM67.21,49.83c-.25-.25-.24-.41.03-.54.36-.18.68-.13,1,.17.29.27.29.28.09.42-.3.21-.89.18-1.11-.05ZM58.98,49.68c-.36-.17-.41-.36-.14-.49.27-.13.77-.06,1.09.17.22.16.22.16,0,.31-.27.19-.6.19-.96.02ZM63.22,49.74c-.61-.07-.71-.19-.34-.41.22-.14.29-.25.24-.42-.06-.2.01-.25.61-.42,1.11-.31,2.06-.06,2.32.62.18.48-.08.61-1.31.65-.59.02-1.27.01-1.52-.01ZM59.36,48.69c-.12-.03-.34-.07-.48-.1-.32-.06-.33-.36-.02-.44.13-.03.21-.11.19-.18-.06-.17-1.39-.65-3.14-1.13-.84-.23-1.61-.49-1.7-.58-.44-.41.46-.77,1.98-.78,1.1,0,1.58.17,2.66.98.41.31,1.08.73,1.49.95.41.21.87.51,1.01.66.26.25.26.28.08.45-.14.13-.41.19-1.01.2-.45.01-.92,0-1.05-.03ZM69.55,87.12c-.12-.13-.47-.56-.77-.95s-.64-.74-.76-.77c-.26-.08-.73.23-1.32.85-.25.26-.48.47-.53.47-.12,0-.51-.45-.51-.59,0-.14,2.02-2.02,2.6-2.42.21-.15.45-.27.53-.27s.27.26.44.58c.2.38.6.83,1.16,1.32l.85.74-.24.32c-.21.28-.72.69-1.09.88-.07.04-.23-.04-.35-.17ZM41.99,86.65c-.68-.56-2.19-2.26-2.19-2.47,0-.33.2-.6.59-.79.33-.16.37-.16.51.02.08.11.15.39.15.64,0,.45.21.78.51.78.2,0,.85-.51.85-.66,0-.06-.14-.25-.31-.42-.34-.33-.3-.51.17-.8.23-.14.26-.13.49.23.27.42.39.46.77.21.41-.27.29-.67-.29-.97-.27-.14-.48-.31-.48-.38,0-.16.48-.59.65-.59.07,0,.32.23.56.5.24.28.72.81,1.06,1.19,1.2,1.3,1.26,1.48.52,1.48-.39,0-.64.09-1.12.4-.97.61-1.57,1.17-1.68,1.57-.13.44-.28.45-.74.07ZM71.94,84.41c-.2-.11-.39-.25-.43-.31-.04-.06-.43-.21-.86-.33-.49-.14-.85-.3-.96-.45-.27-.36-.21-1.01.14-1.63.44-.77,1.82-2.36,2.05-2.36.19,0,.87.41,2.31,1.39.4.27.85.51,1,.53.17.02.28.11.28.21,0,.19-2.09,2.63-2.54,2.95-.34.25-.55.25-1,0ZM73.35,83.07c.45-.35.54-.64.29-.9-.28-.29-.65-.25-.92.09-.39.49-.42.72-.13.91.33.22.35.22.76-.1ZM72.2,81.68l.21-.36-.32-.26c-.42-.34-.58-.32-.92.1-.36.44-.37.85-.04,1.06.22.14.28.14.56-.01.17-.1.41-.33.52-.53ZM39.11,83.25c-.16-.11-.5-.5-.76-.87-.64-.88-.64-1.21-.01-1.05.29.08.44.02,1.21-.5.97-.64,1.5-1.08,1.5-1.23,0-.24-.53-.74-1.04-.98-.63-.3-.67-.48-.18-.82l.31-.22.41.36c.22.2.78.83,1.25,1.4,1.1,1.36,1.21,1.77.49,1.77-.21,0-.59.16-.99.41-1.07.68-1.51,1.09-1.59,1.48-.1.45-.23.5-.6.23ZM72.6,78.74l-.25-.16.3-.44c.48-.71,1.4-1.81,1.6-1.91.13-.07.24-.03.38.13.27.31.41.29.62-.1.21-.38.16-.45-.26-.46-.44,0-.47-.44-.07-1.12.4-.68.77-1.05,1.04-1.05.18,0,.23.09.27.61.04.52.17.81.92,2.03.9,1.47,1.02,1.83.67,2-.11.05-1.09.15-2.17.22-1.17.07-2.13.19-2.37.28-.47.18-.38.18-.68-.01ZM76.43,77c0-.2-.27-.54-.43-.54-.04,0-.15.1-.23.23-.13.2-.13.25.05.37.3.21.62.18.62-.06ZM34.45,75.07c-.09-.13-.36-.68-.58-1.22-.67-1.59-.8-2.4-.43-2.71.25-.21.47-.22.75-.03.18.13.19.18.06.52-.13.33-.12.45.05.86.19.47.28.54.63.49.4-.05.46-.22.22-.64-.12-.22-.22-.44-.22-.47,0-.13.77-.36,1-.3.27.06.31.25.13.56-.16.28-.02.53.3.53.92,0,.98-.76.13-1.67-.27-.29-.3-.39-.2-.56.1-.17.22-.21.65-.18.53.03.53.03.72.56.86,2.43,1.12,3.24,1.06,3.33-.1.16-.31.13-.89-.1-.5-.2-.52-.2-1.5,0-.54.11-1.06.25-1.14.32-.08.06-.16.29-.18.5-.04.46-.32.57-.57.21ZM79.39,74.16c-.19-.34-1.78-.89-2.55-.89h-.66s.07-.41.07-.41c.09-.51.53-1.47.8-1.72.2-.18.22-.18.57.14.31.28.41.31.6.22.28-.14.41-.58.25-.86-.1-.17-.2-.2-.56-.15-.26.04-.47.02-.51-.05-.12-.18.4-1.93.59-2,.09-.03.25.03.35.16.24.28.56.43,1.58.72.75.22.89.23,1.21.1.51-.2.67-.07.58.45-.1.59-.54,1.62-.71,1.68-.08.03-.34-.09-.57-.27-.23-.18-.49-.33-.56-.33-.21,0-.49.43-.49.76,0,.24.07.31.43.4.23.06.49.11.56.11.31,0,.4.43.2.94-.43,1.07-.9,1.47-1.18.98ZM35.76,68.79c-.04-.1.05-.28.22-.45.38-.38.54-.78.43-1.14-.2-.71-.78-.57-1.38.34-.21.32-.5.67-.66.78-.35.26-.96.27-1.39.03-.55-.3-.68-.71-.65-2.06l.03-1.19.45-.03c.61-.05,1.2.07,1.2.23,0,.08-.11.23-.24.34-.3.26-.56.71-.56,1,0,.4.36.19.9-.53.46-.6.6-.71,1.14-.88.81-.25,1.27-.17,1.65.29.44.54.54,1,.39,1.89-.08.51-.09.86-.02,1.04.16.39-.03.51-.81.51-.49,0-.68-.04-.73-.16ZM77.87,65.5c-.09-.09-.1-2.71,0-2.94.09-.21.26-.21.51,0,.26.22.6.11.77-.24.19-.4.05-1.66-.22-1.89-.16-.14-.25-.15-.45-.05-.47.23-.57.08-.57-.88,0-.64.05-.92.16-1.01.18-.14.31.02.45.54.05.18.34.46.84.81,1.18.81,2.22,1.4,2.48,1.4.3,0,.68.29.77.6.11.36-.41.82-1.68,1.48-1.96,1.01-2.34,1.27-2.59,1.79-.22.46-.32.54-.48.4ZM80.56,61.73c.1-.15.08-.22-.09-.34-.34-.24-.52-.19-.52.15,0,.16.04.33.08.37.13.12.4.03.53-.18ZM36.63,64.46c-.26-.26-.31-.26-1.76-.26-1.07,0-1.61.04-1.9.16-.22.09-.43.12-.46.08-.06-.09-.1-1.45-.08-2.79.01-1.1.1-1.19,1.33-1.3,1.01-.09,1.12,0,1.23.96.11.95.28,1.2.84,1.2.24,0,.62-.07.84-.16.52-.2.56-.14.62.95.04.81-.08,1.43-.29,1.43-.05,0-.22-.12-.36-.26ZM34.22,62.38c.34-.31.06-.87-.51-1-.51-.12-.92.6-.55.95.22.2.86.23,1.05.05ZM32.37,59.49c-.08-.42-.02-1.7.09-1.81.04-.04.24-.02.45.05.46.14,3.42.2,3.91.09.5-.12.6.09.51,1.14l-.07.85-.34-.04c-.7-.08-3.31-.07-3.88.01l-.59.08-.08-.38ZM82.16,58.25c-.12-.06-.88-.71-1.67-1.43-.79-.72-1.51-1.3-1.59-1.27-.1.03-.14.33-.12,1.07l.02,1.02h-.33c-.2,0-.37-.07-.43-.19-.06-.1-.12-1.2-.15-2.44-.03-1.91-.01-2.27.13-2.35.09-.06.2-.1.23-.1.03,0,.74.6,1.58,1.33,1.68,1.47,1.9,1.62,2,1.38.11-.26-.02-1.46-.19-1.84-.14-.3-.14-.36,0-.45.24-.14.6-.13.84.04.19.13.21.35.22,2.59.01,2.05-.01,2.47-.16,2.6-.13.12-.22.13-.4.04ZM32.43,56.67c-.18-.63-.09-3.95.12-4.35.43-.81,1.71-.79,2.36.02.14.18.32.33.41.33s.44-.15.79-.32c.39-.2.77-.31.96-.29.29.03.32.07.35.59.02.3-.02.64-.08.74-.06.11-.48.38-.93.61-.92.47-1.24.8-1.01,1.05.19.21,1.17.21,1.36,0,.24-.27.53-.19.61.17.13.59.08,1.52-.09,1.74-.16.2-.17.2-.5.02-.46-.25-3.46-.27-3.81-.02-.33.23-.38.2-.52-.29ZM34.47,55.05c.19-.22.08-1.06-.18-1.33-.26-.27-.67-.26-.96,0-.3.28-.32,1.21-.03,1.37.3.16,1,.14,1.16-.05ZM77.93,50.71c.04-.86.11-1.48.19-1.56.1-.09.22-.07.47.07.55.3.67.12.67-1,0-.71-.04-.97-.18-1.1-.16-.15-.21-.15-.42-.01-.37.24-.54.03-.54-.67,0-.68.09-1.07.24-1.07.06,0,.21.17.34.38.3.47,2.34,1.81,2.92,1.91.57.1,1.03.42,1.03.72s-.59.82-2.11,1.87c-.61.42-1.44,1.02-1.83,1.33-.39.31-.74.56-.78.56s-.04-.65-.01-1.44ZM80.72,48.63c.17-.16-.14-.51-.45-.51-.16,0-.21.08-.21.32,0,.26.05.32.26.32.14,0,.32-.06.4-.13ZM32.45,51.27c-.08-.08-.14-.47-.14-1.04,0-1.13.13-1.29.72-.95.34.2.56.22,1.97.22s1.6-.02,1.79-.22c.12-.12.31-.2.44-.19.21.03.24.12.27.93.04,1.14-.1,1.39-.68,1.18-.21-.08-1.05-.17-1.87-.2-1.39-.06-1.52-.05-1.91.16-.49.27-.43.26-.6.1ZM32.39,48.24c-.18-.18-.18-.37-.07-2.3.07-1.15.17-2.14.23-2.2.11-.11.9-.11,1.01-.01.04.03,0,.21-.09.4-.26.59-.28.88-.06.96.11.04.74.1,1.4.13,1.35.07,1.76-.02,1.96-.44.09-.19.21-.26.37-.24.22.03.24.11.27,1.25.05,1.8-.05,1.98-.73,1.36-.36-.32-.41-.34-1.56-.38-1.53-.06-1.81,0-1.74.38.03.16.12.44.2.62.12.28.12.36,0,.5-.21.24-.94.22-1.19-.03ZM78.21,44.03s-.08-.26-.07-.5c0-.46.46-1.33.89-1.69.36-.31.29-.39-.3-.36l-.54.03-.03-.58c-.02-.32,0-.87.06-1.21.1-.73.32-.87.62-.38.15.25.29.33.71.38.74.1,2.14.01,2.19-.14.02-.07.14-.23.25-.36.18-.2.23-.22.39-.09.15.12.18.41.18,1.85,0,1.9-.1,2.39-.53,2.71-.52.38-1.13.27-1.81-.34-.45-.4-.69-.34-1.24.29-.39.45-.6.55-.76.4ZM81.6,42.36c.1-.14.16-.39.14-.55-.03-.23-.12-.31-.41-.38-.42-.1-.82.04-.82.3,0,.09.07.32.16.53.2.46.64.51.92.11ZM32.42,42.93c-.18-.31-.09-1.66.11-1.78.09-.05.3-.04.47.01.26.09.44.05,1.04-.23.4-.18.85-.43,1-.54l.28-.21-.57-.47c-.31-.26-.77-.57-1.02-.68-.41-.19-.47-.19-.72-.04-.15.09-.33.14-.41.11-.32-.12-.3-1.85.03-1.95.09-.03.22.13.33.39.19.45.93,1.01,2.77,2.11,1.7,1.02,1.67,1.22-.35,2.19-.81.39-1.69.85-1.96,1.01-.57.36-.82.38-1,.08ZM45.46,38.92c-.69-.43-1.01-.92-1.09-1.63-.09-.84.12-1.46.67-1.92.57-.48.86-.58,1.69-.58,1.46,0,2.37.8,2.37,2.09,0,.77-.23,1.27-.81,1.79-.49.43-.87.56-1.67.56-.54,0-.74-.06-1.15-.31ZM47.19,38.27c.22-.21.24-.31.19-1.19-.03-.53-.11-1.07-.19-1.2-.17-.3-.75-.32-.92-.03-.15.26-.15,2.02,0,2.38.14.34.58.36.92.05ZM39.01,39.04c-.3-.08-.31-.13-.24-1.12.02-.23.03-.8.02-1.25-.01-.79-.03-.85-.37-1.14-.34-.29-.35-.32-.17-.49.16-.15.48-.19,1.84-.22,2.35-.06,3.13.18,3.29.99.14.72-.44,1.22-1.6,1.38-.89.12-1,.2-.93.72.03.24.09.57.14.73.07.25.04.3-.22.4-.34.12-1.33.13-1.76.01ZM41.79,36c0-.22-.49-.43-.78-.33-.28.1-.23.59.07.7.32.11.71-.09.71-.37ZM50.5,38.97c-.04-.09.02-.26.13-.37.16-.17.19-.42.19-1.5,0-1.19-.02-1.31-.24-1.48-.3-.22-.3-.47-.02-.62.12-.06.98-.11,1.96-.11,1.58,0,1.79.02,2.25.24.88.42.89,1.28,0,1.85l-.45.29.74.7c.82.77.86.98.23,1.1-.59.1-1.25-.12-1.94-.64-.34-.26-.66-.47-.7-.47s-.06.25-.04.56l.04.56-1.05.03c-.87.03-1.06,0-1.12-.14ZM53.75,36.18c.09-.15.07-.25-.07-.38-.25-.23-1.1-.18-1.15.06-.09.46.98.73,1.22.31ZM62.48,39.02c-.14-.09-.11-.16.2-.4.46-.37,1.96-2.53,1.95-2.82,0-.12-.08-.3-.17-.42-.25-.31-.21-.36.43-.43,1.01-.11,1.43.03,1.99.69.27.32.73.83,1.01,1.14.49.54.52.55.73.38.41-.35,1.01-1.29,1.01-1.6,0-.42.19-.56.76-.56.53,0,.72.18.72.69,0,.33,1.15,1.98,1.85,2.66.65.63.52.71-1.18.71-1.48,0-1.67-.07-1.44-.54.1-.2.07-.32-.18-.67-.17-.24-.39-.43-.51-.43s-.52.33-.91.74c-.91.96-1.03.96-1.91.01-.37-.4-.82-.92-1-1.16-.18-.24-.4-.42-.5-.41-.21.03-1.25,1.42-1.25,1.67,0,.1.08.24.17.31.22.17.22.38,0,.46-.29.1-1.56.07-1.75-.05ZM74.88,38.96c-.04-.09,0-.27.07-.38.25-.37.3-2.1.07-2.73-.11-.3-.17-.61-.14-.69.08-.19.96-.3,1.72-.21.69.08.76.2.45.76-.25.45-.24,2.49.02,2.86.18.26.18.28-.02.42-.14.1-.53.15-1.16.15-.77,0-.96-.03-1.02-.17ZM73.8,90.34c-.5-.05-.84-.54-.93-1.33-.12-1.06.02-1.85.4-2.2.5-.47.62-.39.89.58.41,1.46.38,1.4.81,1.39.21,0,.59-.1.84-.21l.45-.2v-.79c0-.44-.05-1.23-.1-1.76-.09-.91-.08-.97.13-1.03.39-.12,1.05-.1,1.19.03.15.14.53,2.9.53,3.95,0,.64-.02.73-.28.88-.58.36-3.05.8-3.94.7ZM80.8,89.7c-.7-.41-.94-.88-1.3-2.6-.33-1.61-.32-1.81.13-1.96.48-.16.54-.08,1,1.13.26.69.47,1.06.7,1.24.41.32.45.32.85,0,.38-.3.6-.87.6-1.6,0-.81.09-.99.47-.99.43,0,.5.16.76,1.88.24,1.62.18,1.97-.47,2.53-.63.54-2.1.74-2.74.37ZM86.24,89.57c-.73-.2-1.21-.98-1.65-2.68-.28-1.08-.28-1.56-.01-1.79.22-.19.65-.23.75-.08.04.05.14.49.24.98.25,1.24.55,1.85.98,1.99.66.22,1.61.05,1.72-.29.03-.1-.04-.82-.16-1.6-.28-1.77-.28-1.67.05-1.81.63-.27.99.33,1.31,2.2.2,1.18.19,2.06-.05,2.39-.23.33-.85.57-1.88.71-.84.12-.84.12-1.31,0ZM37.35,89.48c-.64-.13-1.33-.47-1.61-.79-.28-.33-.47-1.34-.5-2.68-.03-.93-.01-1,.24-1.19.15-.11.39-.2.54-.2.51,0,.67.29.82,1.54.08.64.19,1.2.24,1.25.19.18.32-.04.39-.65.1-.82.16-.98.35-.98.12,0,.16.16.16.68,0,1.15.21,1.33.59.49.25-.57.47-.69,1-.58.44.09.53.42.36,1.35-.17.94-.38,1.39-.75,1.62-.35.21-1.17.28-1.84.15ZM31.24,88.9c-.32-.07-.71-.21-.87-.31-.63-.38-.93-1.6-.76-3.09.05-.46.1-.94.1-1.07,0-.13.11-.34.24-.46.19-.18.32-.21.65-.15.23.04.46.12.53.17.07.06.1.7.08,1.56-.04,1.58-.02,1.63.6,1.74.8.13,1.07-.23,1.31-1.72.18-1.15.35-1.42.83-1.33.67.12.7.22.7,2.07s-.06,2.08-.97,2.52c-.57.27-1.48.3-2.44.08ZM26.2,88.3c-1.28-.18-2.07-.66-2.28-1.39-.12-.42.03-2.72.24-3.61.15-.63.53-.82,1.19-.58l.3.11-.08,1.57c-.09,1.73-.05,1.91.51,2.18.82.4,1.07.13,1.42-1.49.15-.69.3-1.34.34-1.44.11-.26.45-.33.91-.19l.4.12v.81c-.01,1.27-.19,2.9-.35,3.23-.08.16-.3.37-.49.46-.44.21-1.45.32-2.11.23ZM5.8,88.13c-.19-.34-.26-1.14-.14-1.58.08-.28.29-.58.62-.86.5-.43.78-.54,2.09-.77.43-.08.85-.23,1.04-.38.53-.42,1.02-.28,1.02.29,0,.41-.54.9-1.14,1.04-1.11.26-1.06.22-1.13.91-.05.54-.1.65-.34.76-.16.07-.44.13-.63.13-.25,0-.42.09-.6.32-.28.35-.64.41-.8.13ZM75.03,87.92c-.03-.1-.09-.46-.13-.79-.09-.72.06-1.07.43-1.02.21.03.27.14.38.83.2,1.19.21,1.16-.24,1.16-.27,0-.41-.05-.44-.19ZM86.41,86.86c-.07-.22-.15-.68-.19-1.03-.05-.51-.03-.67.11-.78.48-.37.78.09.92,1.44l.08.77h-.4c-.37,0-.41-.03-.52-.4ZM81.6,86.99c-.43-.4-.54-1.76-.14-1.83.38-.07.61.27.7,1,.1.88-.13,1.23-.55.83ZM31.86,86.61c-.16-.28-.09-1.42.09-1.59.25-.24.48-.01.48.46-.02,1.09-.28,1.63-.57,1.13ZM26.38,85.96c-.09-.31-.07-1.11.03-1.45.04-.15.16-.28.27-.3.25-.05.36.37.28,1.11-.09.79-.42,1.17-.57.64ZM105.31,85.52c-.08-.19.12-1.07.82-3.58.74-2.67,1.18-5.18,1.53-8.7.16-1.57.46-4.32.69-6.11.61-4.91.73-6.37.97-11.5.12-2.59.22-4.91.22-5.16,0-.25.04-.45.1-.45s.28.15.51.34l.42.34-.12,4.89c-.15,6.41-.47,9.77-1.29,13.83-.32,1.57-.6,3.54-.71,5.05-.06.85-.05,1.03.08,1.03.09,0,.22-.1.3-.21.14-.21,1.49-5.31,1.96-7.4.48-2.12.91-4.88,1.02-6.5.06-.93.18-3.89.27-6.58l.16-4.89.32-.27c.44-.36.71-.43.91-.24.15.14.15.75.04,5.11-.07,2.73-.2,5.69-.29,6.6-.22,2.17-.88,6.15-1.42,8.51-1.24,5.37-3.4,11.33-5.25,14.49-.88,1.5-1.1,1.75-1.25,1.38ZM7.12,84.11c-.1-.1-.33-.54-.52-.98-.32-.75-1.95-5.97-2.96-9.47-1.75-6.05-2.38-11.66-2.22-19.59.08-3.83.09-3.94.31-3.94.12,0,.39.16.6.35l.37.35.07,1.9c.04,1.05.1,3.8.13,6.13.09,5.79.35,8.32,1.29,12.45.19.83.47,2.15.62,2.94.3,1.57.57,2.33.77,2.15.08-.08.03-.55-.17-1.58-.31-1.59-.38-2.77-.7-11.73-.09-2.56-.22-6.32-.3-8.37-.07-2.04-.1-3.79-.07-3.88.08-.2.86-.46.99-.33.05.05.15,1.02.22,2.15.07,1.13.25,3.99.41,6.35.15,2.36.35,5.83.45,7.72s.2,3.6.23,3.81c.12.76.97,12.74.94,13.2-.04.53-.18.65-.46.37ZM79.38,83.24c-.14-.08-.17-.35-.17-1.35,0-1.08.04-1.31.26-1.69.31-.55.61-.74,1.4-.89,1.25-.24,2.11.2,2.44,1.27.22.7.25,1.98.06,2.31-.13.23-.55.42-.66.32-.03-.03-.11-.59-.17-1.25-.13-1.39-.29-1.71-.91-1.76-.52-.04-1.13.35-1.31.83-.07.2-.14.81-.14,1.34v.98s-.32,0-.32,0c-.17,0-.39-.05-.48-.1ZM81.03,83.1c-.02-.07-.07-.6-.09-1.17-.05-1-.04-1.04.23-1.24.62-.46.82-.17.82,1.2,0,.55-.03,1.08-.07,1.17-.08.2-.82.23-.89.04ZM84.01,83c-.09-.15-.15-.64-.15-1.35,0-1.26.16-1.66.84-2.09.52-.33,1.65-.34,2.09-.02.54.4,1.31,2.16,1.15,2.63-.08.25-.5.48-.61.35-.04-.05-.19-.42-.33-.83-.27-.81-.36-.94-.86-1.3-.46-.33-.87-.3-1.27.09-.33.32-.33.33-.32,1.53,0,1.1,0,1.21-.2,1.21-.11,0-.27-.11-.35-.24ZM85.47,82.96c-.03-.05-.12-.46-.19-.92-.12-.72-.11-.86.05-1.08.23-.32.57-.33.79-.02.2.3.45,1.77.32,1.9-.14.13-.89.23-.96.12ZM94.58,82.92c-.99-.25-2.33-1.29-2.77-2.15-.37-.72-.47-1.84-.29-3.17l.14-1.03-.3-.39c-.31-.42-3.13-3.41-4.31-4.57-.84-.83-.88-.77-.53.94.29,1.41.3,1.78.04,1.9-.27.13-1.95.33-2.77.33-.91,0-1.03-.18-1.05-1.56-.01-.99,0-1.03.24-1.06.19-.02.31.05.45.29.57.94,1.4.08,1.62-1.7.06-.47.14-.95.17-1.06.09-.28.35-.25.57.07.18.26.2.26,1.85.26h1.66l1.64,1.04c.9.57,2.06,1.31,2.58,1.65,1.06.69.97.68,2.59.26.84-.22,1.01-.23,1.88-.13,1.09.13,1.86.43,2.42.96.41.38.5.77.21.99-.14.11-.31.1-.88-.04-.7-.16-1.21-.14-1.21.05,0,.05.31.44.68.86.79.88.98,1.34.76,1.94-.08.22-.2.42-.27.44s-.47-.2-.9-.5c-.92-.64-1.77-.9-2.6-.81-.49.05-.64.13-1.05.53-.6.59-.76,1.12-.69,2.24.04.68.16,1.09.54,1.98.38.89.45,1.16.35,1.28-.18.2-.46.26-.81.17ZM34.76,82.22c-.22-.2-.23-.37-.03-.62.19-.24.51-.19.72.12.15.21.14.25-.07.45-.28.26-.39.27-.62.05ZM19.36,81.8c-.18-.17-.07-.65.26-1.1,1-1.37,1.19-2.29.69-3.33-.67-1.41-2.12-1.96-4.57-1.74-1.5.13-1.65.07-1.51-.6.12-.61.84-1.21,1.87-1.57.77-.27.82-.31.57-.4-.15-.05-.67-.07-1.16-.03-.62.05-.93.03-1.05-.06-.42-.33.01-1.04.94-1.55.42-.23.7-.29,1.46-.33,1.23-.06,1.82.09,2.96.73.56.32.99.5,1.08.45.08-.04.89-.67,1.81-1.38s1.85-1.38,2.08-1.46c.3-.12.63-.14,1.23-.1.49.04,1.19,0,1.73-.08,1.38-.21,1.54-.06.64.62-2.29,1.74-5.25,4.42-5.25,4.75,0,.12.11.7.24,1.27.34,1.51.27,3.04-.16,3.83-.64,1.15-1.91,2-3.13,2.1-.35.03-.67.02-.72-.03ZM31.28,81.6c-.11-.22-.09-.3.08-.48.28-.29.64-.22.83.14.19.37.02.6-.45.6-.24,0-.36-.07-.46-.26ZM28.83,81.48c-.31-.2-.32-.48-.04-.72.28-.24.54-.22.75.06.23.3.22.36-.05.61-.27.25-.33.26-.66.05ZM25.53,81.08c-.08-.09-.12-.31-.1-.51.03-.32.07-.35.42-.35.48,0,.67.24.52.66-.13.34-.61.46-.83.2ZM31.87,80.23c-.34-.07-1.49-.31-2.55-.52-2.77-.56-2.66-.52-2.66-1.07,0-.6.19-.74.88-.64,1.66.22,5.43,1.11,5.9,1.39.3.18.34.59.08.83-.21.2-.76.2-1.64.02ZM80.85,78.52c-.06-.15-.11-.51-.11-.8,0-.45.04-.54.26-.62.14-.05,1.54-.13,3.11-.17,2.8-.08,2.85-.07,2.98.14.16.28.16,1.15,0,1.24-.11.06-5.08.47-5.81.47-.23,0-.34-.07-.43-.27ZM31.81,78.14c-.25-.06-1.32-.29-2.38-.52-1.06-.23-2.14-.47-2.41-.53l-.48-.12v-1.02c0-1.29.09-1.44.82-1.34.74.1.9.25.97.89.08.76.27.87.65.4.17-.21.39-.37.49-.37.33,0,1.14.4,1.41.69.23.25.29.27.52.16.35-.18.87-.05,1.15.29.19.22.23.4.2.92-.04.72-.11.77-.94.57ZM103.79,76.4c-.04-.1,0-.8.07-1.56.3-2.94.33-3.8.19-5.56-.13-1.63-.12-2.01.18-5.66.17-2.15.4-5.13.49-6.61.1-1.48.25-3.36.34-4.18.09-.81.2-1.8.24-2.18.09-.87.21-1.08.45-.79.14.17.17.64.17,2.54,0,2.7-.17,7.16-.33,9-.33,3.69-.57,7.5-.47,7.59.18.17.44-.33.74-1.46.54-2.01.63-2.8.81-6.56.23-4.91.5-9.92.58-10.59.05-.48.1-.55.36-.62.55-.13.59.07.59,2.58,0,4.08-.34,10.1-.69,12.38-.23,1.51-1.12,5.88-1.41,6.93-.29,1.03-1.34,3.73-1.77,4.52-.23.43-.4.5-.52.22ZM81.69,76.1c-.17-.24-.17-.28,0-.53.26-.37.82-.37.98,0,.26.64-.58,1.09-.98.52ZM83.92,76.04c-.27-.25-.28-.41-.05-.72.22-.29.73-.31,1-.04.22.23.25.66.05.84-.21.2-.75.15-1-.08ZM86.19,75.94c-.28-.26-.3-.61-.05-.94.14-.19.25-.23.48-.17.45.1.58.25.58.63s-.12.51-.53.63c-.17.05-.32,0-.48-.15ZM11.56,74.8c-.87-1.03-2.91-6.15-3.16-7.96-.24-1.71-.68-6.62-.8-8.94-.14-2.6-.21-8.46-.1-8.56.04-.03.22-.01.41.05.4.13.37-.06.66,4.23.09,1.37.19,2.72.23,3.01s.11,1.5.18,2.7c.16,2.95.37,4.67.97,7.72.62,3.2.59,3.07.8,3.07.2,0,.17-.6-.13-2.8-.31-2.32-.4-3.24-.65-6.87-.26-3.8-.34-9.06-.16-10.24.09-.63.45-1.14.65-.95.15.14.3,1.48.49,4.47.56,8.63.77,11.96,1.02,16.18.16,2.59.29,4.81.29,4.94,0,.34-.38.31-.68-.05ZM30.1,73.84c-.25-.17-.59-.46-.76-.65-.29-.32-.31-.4-.31-1.39,0-1.2.03-1.23.91-.81.47.22.52.28.71.93.11.38.21,1.02.23,1.42.03.88-.09.96-.78.5ZM97.64,70.83c0-.32.26-1.15.62-2.04.47-1.16,1.15-3.23,1.37-4.21.09-.4.16-1.17.16-1.72s.1-1.7.23-2.56c.26-1.79,1.48-10.98,1.48-11.14s.42-.12.62.06c.12.11.18.36.18.7,0,.66-1.29,11.5-1.53,12.83-.34,1.94-.14,2.15.54.57.85-1.96,1.2-3.63,1.44-6.97.24-3.27.58-6.83.68-7.06.08-.17.2-.24.45-.24h.34v.72c0,.71-.38,6.4-.52,7.74-.1,1.01-.7,3.93-1.01,4.97-.46,1.54-1.07,3.08-1.62,4.12-.5.96-1.95,3.1-2.66,3.94-.32.38-.77.54-.77.26ZM15.4,68.67c-.4-.41-.98-1.23-1.18-1.67-.35-.78-1.19-4.1-1.57-6.18-.48-2.62-.58-3.59-.74-6.61-.07-1.28-.14-2.73-.17-3.23-.03-.49-.01-1.14.03-1.43.07-.5.09-.53.44-.56.3-.03.39.01.48.21.06.13.16,1.29.23,2.57.33,6.39.43,7.38,1.03,10.63.38,2.07.63,2.62.52,1.16-.31-3.96-.86-12.86-.87-13.78v-1.14s.37-.21.37-.21c.47-.27.52-.26.59.03.03.13.19,2.57.35,5.42.16,2.85.39,6.04.51,7.09.27,2.3.41,4.1.52,6.32.08,1.83.04,1.95-.54,1.37ZM87.26,68.81c-1.69-.52-2.38-1.34-2.83-3.38-.5-2.25.02-4.84,1.86-9.38,1.92-4.72,2.41-6.13,2.97-8.62.34-1.53.37-4.27.06-5.66-.6-2.66-1.86-4.94-3.14-5.71-.87-.52-.93-.63-.95-1.55v-.82s.33-.03.33-.03c.71-.06,2.81,1.53,3.74,2.83,1.61,2.25,2.12,4.36,2.14,8.73,0,1.62-.04,2.28-.25,3.44-.44,2.46-.96,4.24-1.8,6.19-.77,1.79-1.83,4.96-2.07,6.19-.25,1.3-.32,3.37-.13,3.83.15.36.31.36.94.03.87-.46,1.72-.31,2.32.42.24.29.32.52.36,1.08.05.63.02.78-.28,1.29-.48.84-1.07,1.2-2.05,1.24-.42.02-.96-.03-1.21-.11ZM25.37,67.86c-1.16-.23-2.01-1.18-2.01-2.23,0-.97.69-1.86,1.6-2.08.45-.11.63-.1,1.23.07.83.23,1.01.17,1.23-.43.11-.3.14-.79.1-1.73-.05-1.12-.16-1.76-.74-4.19-1.21-5.04-1.46-6.7-1.56-10.62-.05-2.01-.03-2.73.12-3.75.4-2.7,1.03-4.57,2-5.98.85-1.23,2.02-2.22,2.61-2.22.27,0,.33.05.39.38.15.74,0,1.08-.84,1.89-1.34,1.29-2.08,2.65-2.48,4.56-.24,1.15-.26,4.22-.05,6.03.37,3.07.85,5.13,1.94,8.25,1.57,4.52,1.94,6.47,1.59,8.45-.13.73-.78,1.98-1.29,2.48-.49.47-1.37.93-2.18,1.13-.77.19-.8.19-1.67.01ZM93.2,67.4c-.03-.49.1-.84.92-2.51,1.28-2.58,1.94-4.76,2.54-8.36.35-2.12.6-4.24.7-6.04.09-1.52.15-1.75.47-1.56.18.11.2.33.19,2.59-.02,2.86-.11,3.49-.97,6.82-.32,1.25-.55,2.32-.5,2.42.07.18.09.18.3,0,.12-.1.33-.45.46-.78.38-.94,1.2-3.94,1.52-5.56.16-.81.35-1.7.41-1.96.06-.27.21-1.19.33-2.05.14-1.05.27-1.62.39-1.73.36-.34.43-.01.38,1.91-.06,2.04-.4,4-1.17,6.73-.48,1.72-.62,2.09-1.64,4.31-1.16,2.54-2.03,3.87-3.73,5.74-.26.28-.57.31-.59.05ZM19.2,64.88c-1.34-2.12-1.49-2.4-1.96-3.63-.79-2.07-1.01-3.33-1.19-6.99-.09-1.77-.22-3.91-.28-4.74-.06-.83-.09-1.55-.06-1.6.1-.16.64.02.73.25.05.12.17,1.25.28,2.5.32,3.76.51,5.25.93,7.19.41,1.92,1.14,4.34,1.31,4.34.13,0,.12-.08-.13-1.47-.37-2.03-.78-5.1-1.02-7.68-.13-1.34-.28-2.72-.34-3.07-.22-1.23-.08-2.27.29-2.27.41,0,.52.48,1.02,4.44.22,1.77.61,4.65.85,6.4.47,3.3.69,6.82.48,7.34-.1.23-.17.15-.9-1ZM23.27,62.24c-.36-.28-.9-1.08-1.82-2.7-.56-.98-.95-2.03-1.32-3.54-.35-1.42-1.27-8.08-1.16-8.35.07-.16.64-.24.64-.08,0,.6,1.3,8.11,1.51,8.75.57,1.71.66,1.87.91,1.51.09-.13.08-.34-.01-.74-.36-1.5-1.05-5.74-1.21-7.41-.24-2.54-.24-2.51.1-2.51s.4.18.74,2.27c.85,5.18,1.75,10.04,2.1,11.3.22.81.38,1.53.35,1.61-.09.23-.47.18-.84-.12ZM90.43,62.37c-.03-.07.13-.56.36-1.08,1.76-4.06,2.45-6.51,2.93-10.42.25-2.02.27-2.12.53-2.12.36,0,.66.2.66.45,0,.3-.64,3.74-.86,4.59-.09.36-.32,1.36-.5,2.22s-.47,1.92-.63,2.36c-.46,1.23-.5,1.37-.4,1.43.1.06.69-.58,1.17-1.27.51-.75,1.29-2.89,1.73-4.77.09-.4.22-1.68.28-2.84.06-1.16.15-2.15.2-2.19.16-.15.57.03.64.26.18.63.01,3.26-.34,5.23-.17.94-.91,3.16-1.38,4.15-.68,1.42-2.05,3.09-3.13,3.82-.47.32-1.16.41-1.26.17ZM90.67,57.47c-.21-.2-.23-.04.12-1.73.17-.83.36-2.34.45-3.6.16-2.17.22-2.53.41-2.53.36,0,.37,1.07.03,3.59-.18,1.32-.07,1.73.22.89.19-.53.46-2.32.59-3.81.08-.93.27-1.35.52-1.12.29.27.09,3.4-.31,4.68-.16.52-1.06,2.71-1.41,3.41-.18.36-.39.44-.62.23ZM24.07,56.45c-.82-1.54-1.13-2.72-1.72-6.51-.25-1.59-.42-2.96-.39-3.03.13-.31.83-.24.83.08,0,.07.15,1.29.34,2.72.34,2.61.48,3.32.69,3.44.15.09.14-.4-.06-1.84-.09-.68-.18-2.04-.2-3.03l-.03-1.8.32-.03c.61-.06.64.05.65,1.98,0,.97.05,2.38.11,3.13.06.76.14,2.36.18,3.57.09,2.59.02,2.73-.72,1.32ZM85.44,55.82c-.09-.22-.02-3.11.08-3.2.13-.12,1.29.21,1.32.39.04.21-.96,2.62-1.18,2.83-.13.13-.16.13-.22-.02ZM29.46,55.6c-.43-.62-.88-2.52-.65-2.78.07-.08.4-.27.74-.43.8-.38.96-.28.96.59,0,.8-.21,2.2-.38,2.53-.18.35-.46.38-.67.08ZM85.51,51.57c-.12-.13-.13-.31-.05-.73.09-.52.13-.57.61-.79.55-.26,1.24-.31,1.46-.11.14.13.18.8.07,1.09-.18.45-1.79.87-2.08.54ZM28,49.75c-.11-.12-.16-.65-.2-1.77-.04-1.37-.02-1.63.13-1.74.21-.16,1.88-.28,2.09-.15.22.14.37,1.11.37,2.36,0,.9-.04,1.18-.18,1.31-.45.42-.66.14-.84-1.09-.15-1.02-.2-1.18-.39-1.18-.14,0-.29.93-.29,1.87,0,.3-.06.46-.18.5-.27.1-.35.08-.51-.11ZM85.69,49.68c-.25-.17-.46-1.36-.39-2.28.04-.55.1-.72.31-.88.54-.41,1.01-.22,1.15.45.13.63-.04,2.39-.24,2.57-.25.22-.61.28-.82.14ZM87.35,48.94c-.05-.07-.11-.64-.13-1.27-.03-.92,0-1.19.14-1.4.22-.32.64-.43.96-.27.2.1.24.22.24.81,0,.71-.27,1.89-.48,2.13-.06.07-.24.13-.38.13s-.3-.06-.35-.13ZM110.25,48.85c-.26-.12-.62-.37-.78-.56l-.3-.33.07-4c.04-2.59.11-4.05.19-4.14.17-.19.67-.08.83.19.09.16.15,1.19.2,3.35.05,2.76.08,3.16.26,3.41.38.54,1.13.33,1.54-.42.08-.14.13-.89.14-1.85,0-.89.05-2.33.09-3.2l.07-1.58.38-.24c.75-.47.74-.53.65,3.6-.04,2.04-.13,3.95-.18,4.23-.12.61-.7,1.33-1.28,1.58-.54.24-1.28.22-1.86-.05ZM3.32,48.23c-.67-.07-1.13-.4-1.46-1.04-.17-.33-.18-.62-.12-2.29.04-1.05.15-2.72.24-3.71.17-1.82.7-5.93.81-6.37.08-.3.37-.31.76-.02.38.28.38.45,0,3.07-.27,1.82-.31,2.39-.31,5.02,0,3.17.06,3.56.57,3.63.32.04.82-.44.95-.92.12-.43.51-4.28.69-6.73.13-1.79.21-2.39.34-2.59.11-.16.65-.18.81-.03.07.07-.01,1.64-.23,4.43-.19,2.38-.37,4.8-.41,5.38-.08,1.13-.33,1.86-.69,2.04-.28.14-1.21.2-1.93.13ZM105.85,47.98c-.19-.08-.46-.28-.6-.44-.24-.28-.25-.37-.25-3.6,0-1.89.05-3.43.11-3.58.13-.32.51-.37.67-.09.06.1.13,1.28.16,2.62.06,2.64.13,3.01.59,3.01.56,0,.62-.28.72-3,.09-2.42.1-2.51.36-2.77.52-.52.57-.4.56,1.35,0,.89-.05,2.42-.1,3.41-.13,2.54-.38,3.07-1.45,3.18-.24.02-.59-.02-.78-.1ZM7.81,47.76c-.47-.25-.6-.68-.52-1.78.12-1.83.65-7.95.73-8.53.08-.53.11-.58.4-.62.31-.03.31-.03.31.64,0,.7-.23,3.56-.51,6.32-.23,2.21-.23,2.21.12,2.34.3.11,1.07-.11,1.07-.3,0-.47.86-7.58.97-8.03.04-.17.14-.24.34-.24.38,0,.44.21.3,1.03-.07.38-.28,2.34-.47,4.35-.38,3.92-.47,4.36-1.08,4.73-.4.24-1.28.3-1.65.1ZM102.03,47.27c-.59-.32-.76-1.42-.65-4.27.05-1.24.12-2.31.16-2.37.14-.22.6-.14.67.12.04.13.07,1.22.07,2.41,0,1.55.04,2.21.14,2.3.19.18.51.16.59-.05.04-.09.09-1.19.1-2.42.04-2.41.08-2.59.6-2.59.26,0,.27.03.27.82,0,.45-.08,1.89-.18,3.2l-.18,2.38-.34.29c-.35.31-.89.38-1.27.18ZM98.43,46.77l-.35-.29.1-2.73c.08-2.24.13-2.76.28-2.89.1-.09.22-.14.28-.1.06.03.14,1,.19,2.15.08,2.03.15,2.42.42,2.18.21-.19.32-.87.4-2.47.08-1.54.17-2.01.38-2.01.08,0,.12,1,.12,2.92v2.92l-.33.31c-.44.41-1,.42-1.49.02ZM11.82,46.79c-.56-.36-.63-.69-.54-2.47.04-.9.18-2.64.3-3.86.18-1.81.26-2.25.41-2.35.39-.27.42,0,.25,2.59-.09,1.38-.15,2.86-.14,3.29.03,1.1.4,1.57.86,1.09.13-.14.32-1.07.66-3.31.26-1.72.54-3.18.62-3.26.22-.23.62-.05.62.27,0,.15-.17,1.66-.39,3.35s-.42,3.37-.46,3.74c-.06.53-.13.7-.36.87-.36.27-1.44.29-1.82.05ZM95.41,46.23c-.33-.19-.36-.25-.43-.98-.11-1.11-.03-4.03.11-4.07.33-.1.43.19.58,1.64.08.82.21,1.6.28,1.72.27.47.41-.04.5-1.76.08-1.69.17-1.96.58-1.81.17.06.18.26.11,2.06-.1,2.38-.17,2.72-.63,3.1-.41.34-.62.36-1.1.09ZM16.33,46.24c-.4-.07-.88-.41-1.08-.77-.1-.18-.17-.6-.17-1.04,0-.73.4-4.6.53-5.06.09-.35.42-.48.63-.26.15.16.15.43-.02,2.44-.23,2.71-.19,3.08.35,3.08.38,0,.55-.47.95-2.65.44-2.42.46-2.49.76-2.64.17-.08.23-.07.29.07.08.2-.16,4.66-.3,5.45-.05.27-.17.62-.27.77-.31.43-1.06.71-1.66.62ZM92.69,46.06c-.43-.28-.58-.87-.67-2.56-.09-1.7-.03-1.92.4-1.52.19.18.23.36.24,1.04.01.98.1,1.34.35,1.38.23.04.28-.2.38-1.74.06-1.01.1-1.19.28-1.23.47-.12.51.04.48,1.8-.04,1.9-.13,2.32-.55,2.71-.34.32-.57.35-.91.12ZM111.12,45.94c-.12-.14-.15-.64-.13-2.41.03-2.29.1-2.87.37-2.87.29,0,.37.73.31,2.91-.07,2.52-.14,2.83-.55,2.36ZM85.73,45.58c-.16-.27-.45-2.28-.45-3.12,0-.73.11-.89.64-.89.46,0,.49.06.73,1.11.15.7.23.85.41.88.21.03.23-.04.3-.9.06-.79.11-.96.32-1.12.34-.26.8-.19.97.14.07.15.19.76.27,1.38.11.95.11,1.17-.04,1.5-.21.48-.89.86-1.9,1.09-.96.21-1.1.21-1.25-.05ZM20.12,45.49c-.19-.11-.46-.37-.6-.57-.23-.34-.24-.5-.24-2.58,0-1.58.04-2.25.14-2.34.16-.15.5-.17.6-.03.04.06.08.9.1,1.88.04,1.97.15,2.38.64,2.43.45.05.57-.28.76-2.18.1-.97.22-1.81.28-1.86.07-.07.17-.06.3.01.18.1.19.33.17,2.24-.02,2.4-.11,2.73-.77,3.02-.5.22-.95.21-1.38-.03ZM106.33,45.19c-.05-.16-.12-3.26-.08-3.91,0-.16.08-.24.22-.24.18,0,.22.11.28.71.04.39.07,1.37.07,2.17,0,1.37-.01,1.45-.22,1.45-.12,0-.25-.08-.28-.19ZM3.74,43.76c0-2.3.46-6.58.8-7.56.14-.39.39-.45.5-.12.09.26-.09,2.35-.4,4.75-.12.9-.27,2.14-.34,2.75-.12,1.11-.28,1.69-.47,1.69-.05,0-.1-.68-.1-1.51ZM23.1,44.87c-.48-.5-.55-.9-.43-2.58.06-.88.17-1.65.23-1.71.25-.24.35.15.37,1.55.02.99.07,1.48.17,1.58.26.25.47-.14.65-1.23.27-1.6.26-1.55.54-1.51.24.03.25.08.28,1.33.04,1.45-.07,1.98-.5,2.45-.23.25-.38.32-.72.32-.26,0-.5-.07-.61-.19ZM8.61,44.74c-.16-.09-.16-.23.03-1.56.11-.8.31-2.36.43-3.46.12-1.1.27-2.04.34-2.1.06-.06.19-.08.29-.04.26.09.23.74-.16,3.88-.42,3.38-.46,3.53-.92,3.28ZM28.35,44.44c-.34-.06-.4-.11-.43-.41-.05-.5.34-.71,1.15-.61.34.04.66.1.73.14.2.12.27.5.12.68-.16.2-.98.3-1.56.2ZM12.51,43.34c.04-.42.13-1.53.2-2.46.13-1.8.22-2.17.5-2.17.3,0,.31.27.07,2.04-.41,3.01-.48,3.36-.67,3.36-.15,0-.16-.12-.1-.77ZM16.51,43.71c-.18-.17.13-3.57.38-4.19.13-.31.43-.37.54-.1.1.23-.28,3.68-.44,4-.13.26-.36.4-.48.29ZM20.47,43.25c-.04-.12-.04-.84,0-1.6.06-1.06.12-1.39.25-1.44.09-.03.22,0,.28.09.11.15.05,2.49-.09,2.92-.09.3-.35.31-.45.02ZM28.21,42.72c-.27-.14-.25-.59.02-.73.3-.15,1.63-.14,1.8.02.19.18.17.46-.04.66-.21.19-1.45.23-1.78.05ZM29.72,40.23c-.2-.16-.53-.32-.72-.35-.54-.1-.52-.38.06-.95.28-.27.6-.65.72-.83.12-.19.26-.33.33-.31.15.05.22,2.5.08,2.63-.06.05-.25-.02-.46-.19ZM92.46,40.29c-.39-.14-.59-.53-.68-1.26-.06-.58-.05-.69.13-.81.35-.24.51-.17.51.21,0,.79.48,1.41.86,1.12.13-.1.15-.28.09-.77-.06-.55-.04-.67.14-.82.41-.32.58-.32.65.03.09.41.09,1.08,0,1.6-.12.65-.94.99-1.7.7ZM95.34,39.9c-.38-.22-.39-.26-.53-1.4-.12-1-.06-1.16.45-1.16.4,0,.43.05.52.84.08.7.15.8.51.69.22-.07.24-.13.19-.97-.05-.81-.03-.91.18-1.05.32-.21.63-.19.65.03.05.66-.05,2.54-.14,2.7-.27.47-1.26.64-1.83.32ZM85.41,39.64c-.14-.13-.2-2.56-.07-2.88.04-.09.17-.17.29-.17.47,0,1.94,1.7,2.09,2.41.07.33.06.34-.31.34-.21,0-.48-.05-.61-.09-.17-.06-.34,0-.64.22-.46.34-.56.36-.75.18ZM98.58,39.32c-.34-.15-.35-.2-.44-1.66-.08-1.25-.08-1.28.16-1.28.3,0,.43.22.52.95.09.73.22.95.43.76.1-.09.15-.44.15-1.05v-.91l.37-.2c.2-.11.42-.17.49-.13.09.05.1.53.05,1.62-.07,1.47-.09,1.56-.36,1.79-.31.26-.93.31-1.37.11ZM101.59,38.89c-.37-.23-.39-.28-.46-1.03-.04-.43-.08-1.21-.09-1.72v-.93s.32,0,.32,0c.18,0,.36.04.39.09s.11.61.18,1.24c.14,1.33.29,1.58.68,1.19.24-.24.25-.31.2-1.64-.05-1.22-.03-1.42.14-1.56.25-.21.5-.21.69,0,.18.21.08,3.61-.11,3.96-.18.32-.79.64-1.2.64-.19,0-.53-.11-.74-.24ZM105.51,38.51c-.19-.11-.46-.33-.6-.49-.23-.28-.25-.39-.25-2.54s0-2.25.24-2.32c.13-.04.29-.02.35.03.06.06.16.59.21,1.18.11,1.13.33,1.74.7,1.93.17.09.27.07.41-.06.14-.13.2-.55.28-2.05.09-1.74.12-1.89.34-2.06.52-.39.53-.37.53,2.8,0,2.54-.03,3.03-.18,3.23-.41.55-1.4.72-2.04.35ZM24.85,38.11c.05-.59-.18-.75-.29-.21-.08.39-.33.66-.52.55-.06-.04-.15-.26-.19-.49-.09-.5-.23-.54-.36-.08-.05.18-.18.39-.29.45-.32.18-.68-.29-.58-.78.22-1.1,1.08-1.54,2.16-1.12.46.18.73.67.73,1.33,0,.54-.17.84-.47.84-.21,0-.23-.06-.19-.49ZM110.51,37.92c-.19-.08-.49-.29-.68-.48l-.34-.34v-5.73l.3-.08c.3-.07.3-.06.37.52.04.33.12,1.32.17,2.2.13,2.04.34,2.49,1.08,2.32.55-.13.63-.48.63-2.99,0-2.52.03-2.62.65-2.74l.34-.06.07,2.26c.04,1.24.1,2.72.14,3.27l.07,1.02-.36.38c-.54.57-1.66.78-2.44.45ZM21.43,37.32c0-.31-.05-.63-.11-.72-.08-.12-.11-.07-.11.19,0,.42-.18.76-.4.76-.12,0-.17-.17-.19-.61l-.03-.61-.15.42c-.08.23-.22.52-.31.63-.15.19-.18.19-.34.04-.16-.15-.16-.25-.04-.78.22-.99.95-1.48,1.76-1.16.55.21.67.55.55,1.54-.08.71-.12.8-.35.83-.24.03-.26,0-.26-.53ZM92.38,37.22c-.1-.14-.18-.38-.18-.54,0-.35.15-.42,1.86-.93,2.64-.78,4.27-1.68,6.39-3.51,1.04-.9,1.72-1.33,3.65-2.3,2.56-1.29,3.4-1.93,3.4-2.6,0-.51-.18-.87-.76-1.52-.79-.9-1.58-1.32-2.22-1.19-.36.07-.21.23.82.85.56.33,1.04.67,1.07.74.03.07-.04.18-.16.24-.17.08-.46-.02-1.38-.46-2.08-.99-2.5-.88-.63.18.78.44,1.1.68,1.1.82,0,.32-.41.26-1.65-.27-.62-.26-1.22-.47-1.34-.48-.21,0-.21,0-.01.21.11.11.53.41.92.65.48.29.72.51.72.65,0,.25-.14.22-1.29-.3-.93-.41-1.2-.45-1.2-.14,0,.14.2.34.62.58.69.41.82.55.66.7-.07.07-.39,0-.88-.17-.42-.15-.86-.27-.98-.27-.38,0-.24.36.35.9.74.68.59.83-.37.37-.73-.35-1.05-.37-1.17-.06-.04.09.1.34.3.58.22.25.34.49.3.59-.06.14-.16.12-.69-.12-.69-.32-.87-.28-.59.12.38.54.21.7-.5.47-.34-.11-.4-.1-.58.11-.19.22-.19.25.01.68.12.25.17.48.12.53-.05.05-.3-.02-.56-.14-.62-.3-.86-.22-.78.26.08.46-.1.61-.57.49-.41-.11-.48-.07-.48.31s-.05.41-.58.28c-.56-.14-.69-.01-.55.53.11.45-.06.55-.57.3-.46-.22-.58-.18-.74.27-.12.33-.16.36-.54.33-.36-.03-.43,0-.59.29-.24.43-.52.41-1.08-.08-.5-.45-.59-.83-.26-1.1.11-.09.76-.46,1.45-.82,3.03-1.61,4.79-3.13,5.79-5.01.5-.95.62-1.77.35-2.42-.48-1.18-2-1.7-2.85-.97-.22.19-.29.35-.29.71,0,.56.28.94.91,1.24.64.3.81.5.72.83-.18.68-1.18,2.19-2.19,3.28-.98,1.07-2.53,1.96-4.42,2.55-.86.27-1.23.22-1.78-.23-.66-.54-.53-.76.86-1.41,1.73-.81,3.16-1.91,3.95-3.04.73-1.05.73-1.16,0-1.86-.85-.82-.9-.93-.86-2.04.02-.52-.02-.99-.08-1.04-.06-.06-.64-.3-1.3-.54-1.69-.63-2.54-1.16-2.95-1.83-.29-.48-.33-.65-.33-1.4,0-1.45.64-2.97,2.11-5.02.52-.73.95-1.38.95-1.45s-.09-.14-.2-.18c-.47-.14-2.74-.5-4.73-.75-1.19-.15-3.02-.39-4.08-.53-7.14-.94-16.99-1.38-28.52-1.28-6.69.06-7.86.1-12.93.5-6.92.54-15.42,1.69-15.71,2.12-.09.14.09.41,1.09,1.61,1.49,1.78,1.97,2.67,2.11,3.91.14,1.21-.4,1.94-2.49,3.38l-1.24.85.07.54c.07.49.04.59-.27,1.02-.19.26-.57.61-.84.78-.66.41-.87.75-.87,1.46,0,.76.51,1.74,1.17,2.23,1.12.83,4.29,2.32,5.8,2.72.95.25,1.19.37,1.19.57,0,.07-.41.54-.92,1.04-1.06,1.06-1.13,1.08-2.59.71-2.13-.55-5.03-2.24-6.99-4.06-1.53-1.43-2.11-2.16-2.16-2.73-.04-.42-.02-.47.43-.77.71-.48.94-.81.81-1.18-.16-.45-.75-.72-1.53-.71-.81.01-1.18.22-1.48.86-.55,1.16.3,3.17,2.08,4.9.8.77,1.43,1.2,4.01,2.67,1.19.68,2.35,1.4,2.59,1.61.38.33.42.4.29.55-.12.13-.29.16-.79.12-.78-.07-2.01-.59-3.9-1.66-1.6-.91-8.38-4.23-9.53-4.68-.44-.17-1.38-.5-2.1-.74-2.08-.69-2.38-.89-2.38-1.62,0-.97.63-1.64,2.72-2.91.59-.36,1.08-.71,1.08-.78,0-.22-2.15-.8-3.44-.93-1.51-.16-1.66-.12-1.56.42.04.22.1.78.14,1.24.06.74.04.91-.17,1.3-.36.67-.95,1.22-1.65,1.57-.9.44-.98.36-1.16-1.14-.08-.66-.18-1.51-.24-1.89-.11-.77-.05-1.13.29-1.76.47-.85,1.8-1.71,3.26-2.1.85-.23,1.21-.27,2.59-.27.88,0,2.5.08,3.59.17,3.98.34,5.69.24,7.48-.4,1.11-.4,2.61-1.27,2.61-1.52,0-.5-2.48-.45-5.39.1-7.93,1.52-9.68,1.61-11.05.53-.54-.42-.75-.93-1.07-2.6-.31-1.59-.38-1.76-1.33-3.06-.36-.5-.8-1.21-.97-1.59-.55-1.19-.37-2.61.43-3.53.87-.98,4.08-1.97,10.85-3.34C27.83,1.4,42.39,0,58.42,0c7.42,0,11.02.11,17.04.54,1.53.11,6.09.63,7.77.89.53.08,1.88.27,3.01.43,4.93.67,12.13,1.98,15.99,2.92,3.5.85,7.76,2.11,9.35,2.77,2.11.87,2.57,1.45,2.48,3.13-.05.99-.43,1.78-1.46,3.07-.83,1.04-1.06,1.53-1.24,2.7-.07.47-.18,1-.24,1.18-.17.49-.71.94-1.54,1.25-1.14.43-1.77.44-3.61.07-4.66-.94-7.49-1.3-10.15-1.32-2.19-.02-2.61.04-2.61.35s.86,1.02,1.64,1.38c1.3.59,1.03.58,10.89.35,4.16-.1,5.98.15,7.44,1.02.65.39.95.73,1.46,1.64.35.62.36.67.24,1.27-.12.63-1.15,2.9-1.45,3.23-.28.3-.71.01-1.15-.76-.29-.51-.37-.91-.45-2.32-.09-1.55-.04-1.52-2.11-1.46-2.11.06-2.92.39-2.08.86,1.01.56,3.21,2.49,4.15,3.64.77.95.89,1.5.49,2.27-.29.55-.69.77-1.74.93-1.71.27-1.99.35-3.25.96-1.54.75-5.77,3.04-7.02,3.8-1.99,1.21-5.11,2.35-7.07,2.58-.57.07-.64.05-.81-.17ZM114.01,24.47c.17-.39.28-.79.24-.9-.07-.19-.92-.73-1.16-.73-.22,0-.37.65-.37,1.62,0,.76.04,1,.2,1.16.19.2.2.2.49-.12.16-.18.43-.64.6-1.03ZM3.82,25.3c.66-.65.75-1.41.34-2.83-.3-1.02-.46-1.09-.99-.46-.33.39-.39.54-.42,1.19-.04.68.1,1.57.33,2.16.13.32.39.3.75-.05ZM94.04,22.7c1.59-.68,2.1-.75,5.01-.75,2.06,0,3.03.06,4.61.25l2,.25,1.36-.33c1.79-.43,3.32-.52,4.79-.28.59.1,1.24.21,1.45.24.51.08.49-.17-.04-.65-1.01-.92-2.32-1.07-8.41-.95-2.54.05-5.54.08-6.66.07-1.97-.01-2.08-.02-2.97-.33-1.12-.38-2.05-.94-2.6-1.56-.29-.33-.49-.46-.71-.46-.44,0-2.04.97-2.72,1.64-.5.49-.58.62-.52.87.11.45.4.78,1.09,1.23.64.41,2.61,1.11,3.17,1.12.17,0,.68-.15,1.15-.35ZM13.95,22.38c1.57-.21,4.7-.21,6.18,0,.62.09,1.52.19,1.98.22l.85.06,1.27-.59c.99-.46,1.45-.75,2.07-1.32.44-.4.8-.79.8-.88,0-.34-1.12-.97-2.69-1.53-.87-.3-1.13-.31-1.5-.03-.96.72-2.46,1.46-4.03,1.97-.97.32-2.88.44-5.5.33-5.76-.22-6.08-.23-7.03-.1-1.85.25-2.48.75-.96.75,1.29,0,3.95.54,5.72,1.15.68.24.84.23,2.83-.04ZM90.09,18.3c2.37-1.31,3.27-1.47,7.23-1.28,2.74.13,4.9.4,7.89,1.01,1.95.4,3.06.46,3.76.23.52-.18.55-.33.1-.59-1.26-.73-11.4-3.21-15.1-3.69-1.35-.18-1.54-.18-1.93-.04-.62.23-2.11,1.93-2.76,3.15-.54,1.01-.76,1.85-.49,1.85.08,0,.67-.29,1.3-.63ZM26.9,18.18c-.09-.63-1.53-2.57-3-4.04-.38-.38-.59-.5-.83-.5-.91,0-7.71,1.44-11.56,2.45-1.88.49-4.5,1.71-4.3,2,.04.05.8.1,1.71.1,1.51,0,1.88-.04,4.5-.52,7.05-1.29,8.22-1.27,11.9.25.77.32,1.45.56,1.51.55.06-.01.1-.14.08-.28ZM6.55,17.33c2.52-1.44,5.82-2.39,13.64-3.9,6.21-1.2,12.64-2.06,19.72-2.64,1.46-.12,2.76-.24,2.89-.27,1.33-.28,15.3-.38,22.24-.16,9.11.29,9.95.34,14.29.85,5.85.7,10.67,1.44,16.56,2.54,4.97.93,5.83,1.13,11.2,2.58,1.42.38,2.75.71,2.95.72l.37.03.17-.79c.27-1.23.42-1.56,1.21-2.67.9-1.26,1.3-2.14,1.37-2.99.14-1.87-.48-2.26-5.93-3.78-7.17-2-14.31-3.49-20.92-4.36-.72-.09-2.1-.29-3.06-.43-7.82-1.13-17.63-1.62-28.24-1.42-7.84.15-11.9.4-20.81,1.27-6.95.68-11.41,1.31-16.56,2.33-1.49.3-3.15.61-3.68.7-1.51.25-5.69,1.17-7.26,1.59-1.54.41-2.88.94-3.49,1.38-.61.43-.86,1.07-.79,2.04.07.96.33,1.54,1.05,2.32.66.72,1.16,1.39,1.31,1.78.07.16.21.97.33,1.79.2,1.44.35,1.95.58,1.95.06,0,.45-.2.87-.44ZM107.15,14.92c-.52-.48-.46-1,.35-3.22.75-2.08.92-2.42,1.34-2.84.21-.21.4-.29.7-.29.86,0,1.24.64.97,1.62-.24.84-1.36,3.89-1.58,4.3-.43.8-1.18.98-1.77.43ZM108.34,14.09c.29-.53,1.06-2.68,1.37-3.81.26-.94.05-1.38-.42-.89-.21.21-1.03,2.35-1.49,3.86-.25.83-.29,1.07-.18,1.19.24.27.44.17.72-.35ZM7.86,14.87c-.14-.09-.36-.33-.49-.53-.28-.42-1.93-4.96-1.93-5.3,0-.28.27-.4.45-.2.07.08.54,1.23,1.03,2.56.5,1.33.98,2.52,1.08,2.66.11.16.26.23.42.21.4-.05.31-.54-.58-3.1-1.05-3.05-.98-2.79-.76-2.87.1-.04.26,0,.36.09.27.26,1.97,5.03,1.97,5.54,0,.31-.08.53-.26.72-.32.34-.95.45-1.29.22ZM104.55,14.18c-.45-.42-.44-.82.13-2.72.57-1.92,1.05-3.11,1.39-3.4.41-.36.89-.4,1.26-.11.38.31.48.88.27,1.62-.13.46-.18.53-.43.53-.28,0-.28,0-.24-.83.04-.82.04-.83-.23-.79-.23.03-.32.19-.69,1.21-.6,1.66-1.13,3.65-1.05,3.94.12.44.43.22.85-.59.39-.77.55-.89.78-.63.15.17.05.55-.36,1.29-.45.83-1.1,1.01-1.68.48ZM10.46,14.09c-.18-.11-.57-1.18-1.34-3.71-.66-2.18-.71-2.58-.32-2.63.19-.03.38.17.93.91.63.86,1.04,1.31,1.04,1.15,0-.04-.13-.57-.28-1.19s-.26-1.16-.22-1.22c.15-.22.38-.06.59.41.48,1.06,1.73,5.02,1.73,5.5,0,.32-.31.42-.51.17-.09-.11-.47-.65-.84-1.2-.81-1.18-1-1.43-1.08-1.36-.03.03.12.71.34,1.52.45,1.63.44,1.93-.03,1.66ZM102.89,13.69c-.04-.09-.03-.39,0-.66.12-.83,1.52-5.55,1.67-5.63.22-.13.44,0,.44.26,0,.55-1.49,5.8-1.72,6.06-.16.18-.31.17-.39-.03ZM101.84,13.33c-.06-.11-.12-.34-.12-.5,0-.44-.13-1.09-.22-1.09-.04,0-.27.28-.51.63-.51.75-.66.88-.91.79-.24-.09-.23-.32.03-.66.12-.15.48-.78.82-1.39l.6-1.11.05-1.62c.04-1.29.08-1.63.21-1.68.27-.1.38.1.47.82.09.75.27.9.52.44.25-.46.75-.98.87-.91.21.12.09.51-.58,1.77l-.68,1.29v1.55c0,.85-.03,1.63-.07,1.72-.09.23-.35.21-.49-.04ZM13.28,13.13c-.15-.26-1.42-4.44-1.61-5.29-.11-.48-.11-.68-.02-.77.37-.34.52-.01,1.56,3.56.59,2.01.67,2.62.37,2.67-.1.02-.24-.06-.31-.17ZM98.4,12.84c-.5-.15-.54-.18-.54-.5,0-.69,1.31-5.86,1.54-6.09.12-.12.26-.13.81-.03.64.12,1.07.36.91.51-.04.04-.31.08-.6.09-.3,0-.56.08-.62.16-.16.24-.33.84-.4,1.47-.06.57-.06.59.29.77.44.23.4.42-.12.52-.21.04-.44.15-.52.25-.18.22-.53,2.03-.43,2.18.04.06.25.18.47.27.26.1.38.21.35.33-.05.24-.47.26-1.14.07ZM15.15,12.67c-.18-.26-1.86-4.06-2.24-5.09-.24-.63-.22-.92.07-.92.16,0,.31.27,1.2,2.09.21.42.42.77.48.77.06,0,.06-.52.02-1.24-.13-1.84-.12-1.97.09-2.01.1-.02.22.05.26.16.14.34.64,4.4.66,5.42.02.87,0,1.01-.17,1.04-.11.02-.27-.07-.36-.21ZM17.16,12.36c-.07-.08-.18-.33-.24-.56-.21-.74-1.01-4.52-1.1-5.15-.07-.56-.06-.61.19-.73.41-.21,1.14-.3,1.39-.18.21.11.21.12-.06.31-.15.11-.33.2-.4.2-.07,0-.19.07-.27.16-.12.13-.11.33.04,1.02.1.47.24.92.3.99.07.07.3.16.51.2.49.09.5.24.03.6l-.36.28.2,1.04c.11.57.25,1.1.32,1.18.07.08.35.14.62.14.37,0,.5.04.5.16,0,.3-1.44.61-1.67.35ZM96.66,12.33c-.03-.08.02-.69.12-1.34.21-1.41.23-2.04.06-1.76-.06.1-.29.62-.49,1.16-.5,1.3-.76,1.78-.94,1.78-.11,0-.15-.18-.15-.61,0-.85-.14-3-.19-2.95-.02.02-.2.7-.38,1.51-.19.81-.37,1.55-.4,1.65-.07.22-.37.25-.45.04-.09-.23.97-5.91,1.15-6.17.2-.28.36-.3.7-.07.23.15.25.25.26,1.35,0,.65.05,1.28.1,1.4.08.19.11.18.28-.16.1-.2.35-.77.55-1.26.4-.97.57-1.14,1.03-1.03.25.06.3.13.3.42,0,.37-.71,4.53-.92,5.41-.18.72-.46,1.02-.62.64ZM19.4,11.86c-.12-.21-1.26-5.67-1.26-6.03,0-.33.32-.48.98-.46.72.02.91.13,1.19.74.35.74.47,1.56.31,2.16-.16.57-.14.66.57,2.37.37.9.38,1.11.03,1.11-.22,0-.32-.15-.98-1.59-.48-1.02-.55-1.02-.44,0,.15,1.49.13,1.84-.08,1.88-.1.02-.24-.06-.31-.17ZM19.95,8c.12-.29-.07-1.42-.29-1.73-.21-.3-.47-.4-.63-.26-.14.13.07,1.46.31,2.01.17.38.45.38.61-.01ZM22.6,11.55c-.32-.05-.67-.46-.84-.98-.28-.89.22-1,.66-.15.31.58.53.71.8.45.41-.38-.01-1.53-.9-2.46-.39-.4-.82-.98-.97-1.27-.64-1.29-.08-2.62.94-2.22.46.18.74.59.76,1.09.02.56-.27.51-.58-.11-.14-.28-.33-.5-.42-.5-.42,0-.47.82-.09,1.53.09.17.46.63.82,1,.74.78,1.07,1.34,1.18,1.96.07.45-.06,1.05-.29,1.35-.16.21-.71.36-1.08.31ZM24.67,10.98c-.26-.72-1.12-5.54-1.06-5.98.03-.21.1-.29.26-.29.28,0,.35.24.9,3.23.44,2.41.48,3.1.15,3.15-.11.02-.22-.03-.25-.1ZM88.25,11.03c-.56-.1-.55-.39.2-4.28.37-1.94.48-2.28.74-2.38.32-.12,1,.08,1.32.38.29.27.32.37.32,1.01,0,.99-.53,3.89-.82,4.46-.36.71-.89.95-1.76.8ZM89.29,10.23c.19-.28.97-3.89.97-4.51,0-.45-.22-.75-.56-.75-.16,0-.24.16-.39.75-.22.92-.23,1.35,0,1.62.25.31.2.67-.11.86-.15.09-.31.27-.36.4-.16.45-.36,1.6-.3,1.73.09.22.58.16.76-.1ZM25.99,10.87c-.18-.2-1.04-5.16-1.04-6,0-.51.2-.63,1-.63.49,0,.6.04.85.32.36.4.46.73.81,2.69.47,2.64.35,3.4-.59,3.65-.57.15-.89.14-1.03-.02ZM27.04,10.2c.22-.21.22-.51,0-2.11-.34-2.57-.59-3.33-1.1-3.33-.23,0-.24.03-.17.93.08,1.04.58,3.98.75,4.4.13.32.26.35.51.11ZM28.62,10.45c-.05-.08-.11-1.55-.13-3.27-.03-2.73-.01-3.15.14-3.27.14-.11.21-.11.34,0,.32.25,1.99,5.4,1.99,6.15,0,.13-.08.2-.21.2-.15,0-.27-.15-.41-.5-.27-.68-.38-.78-.78-.75-.34.03-.35.05-.46.76-.11.71-.28.95-.47.67ZM29.59,7.75c0-.45-.42-1.39-.46-1.03-.04.31.02,1.26.08,1.35.03.04.13.08.21.08.11,0,.16-.12.16-.4ZM31.54,10.12c-.13-.15-.53-2.65-.82-5.14-.16-1.39-.11-1.49.76-1.49.66,0,1.02.17,1.24.61.22.42.58,2.57.69,4.07.09,1.17-.02,1.53-.51,1.81-.48.26-1.18.34-1.35.15ZM32.79,8.96c.09-1.13-.44-4.41-.77-4.74-.22-.23-.56-.26-.64-.07-.15.4.56,5.02.82,5.31.24.27.55.01.59-.5ZM83.87,9.93c-.04-.18-.07-.49-.07-.68,0-.37-.15-.54-.51-.6-.18-.03-.29.09-.54.55-.37.69-.52.87-.66.79-.19-.11-.11-.53.47-2.39,1.2-3.87,1.37-4.23,1.84-3.99.22.11.22.19.14,2.88-.1,3.2-.15,3.7-.41,3.75-.13.02-.2-.07-.25-.3ZM83.87,7.34c.08-.52-.01-1.04-.18-.94-.06.03-.19.32-.29.64-.14.44-.15.62-.05.73.22.25.44.06.52-.43ZM80.78,8.22c.04-1.08.03-1.64-.04-1.51-.06.12-.32.85-.57,1.62-.38,1.14-.5,1.4-.66,1.37-.2-.04-.22-.14-.43-2.66-.04-.46-.1-.8-.13-.77-.03.03-.18.75-.32,1.61-.27,1.6-.44,2.01-.73,1.69-.16-.18-.09-1.02.35-4.34.24-1.82.39-2.27.76-2.27.49,0,.58.21.7,1.58.06.72.16,1.36.22,1.42.06.06.27-.39.53-1.16.23-.69.47-1.32.53-1.39.15-.18.7-.17.87.02.14.16.09.87-.34,4.24-.24,1.93-.34,2.27-.63,2.27-.17,0-.18-.17-.12-1.72ZM75.78,9.55c-.14-.02-.38-.19-.54-.36-.35-.39-.37-.94-.12-3,.32-2.64.54-3.25,1.24-3.47.43-.13,1.05.14,1.22.53.16.37.05,2.85-.18,4.28-.2,1.25-.48,1.81-.98,1.97-.2.06-.37.11-.37.1,0,0-.12-.03-.26-.06ZM76.42,8.54c.16-.45.58-3.7.58-4.45,0-.97-.56-1.13-.78-.21-.28,1.16-.57,4.77-.39,4.93.19.18.48.05.59-.27ZM37.2,9.02c-.13-.45-.37-2.1-.64-4.35-.17-1.39-.17-1.54,0-1.69.29-.27.5-.05,1.08,1.15.67,1.4.84,1.47.75.36-.04-.46-.09-1.01-.12-1.23-.04-.3,0-.42.13-.46.1-.04.23-.02.29.03.22.2.98,5.78.84,6.18-.15.45-.44.12-1.07-1.23q-.9-1.94-.91-1.09c0,.39.05,1.07.12,1.51.07.44.09.9.05,1.01-.12.34-.38.24-.5-.19ZM73.84,9.12c-.09-.17-.81-3.12-.81-3.35,0-.05-.05-.05-.11,0-.06.06-.19.79-.29,1.62-.09.83-.2,1.56-.23,1.61-.03.05-.16.09-.28.09-.19,0-.22-.08-.22-.48,0-1.08.47-5.91.59-6.05.07-.08.23-.13.36-.11.2.03.28.2.53,1.15.33,1.28.42,1.52.51,1.44.04-.03.14-.54.23-1.14.09-.59.19-1.12.22-1.17.1-.15.36-.11.43.06.1.25-.28,5.54-.45,6.16-.08.3-.35.4-.48.17ZM40.08,8.71c-.12-.76.13-5.93.29-6.12.19-.21.42-.19.55.04.2.34,1.48,5.28,1.51,5.81.02.43,0,.5-.19.5-.16,0-.27-.14-.4-.49-.22-.59-.42-.83-.7-.83s-.35.13-.49.89c-.09.46-.18.65-.31.67-.15.03-.21-.08-.27-.47ZM41.28,6.49c0-.37-.24-1.1-.36-1.1-.13,0-.16.9-.04,1.24.09.26.4.14.4-.15ZM43.47,8.94c-.51-.33-.74-1.4-.89-4.14-.07-1.34.03-2.04.37-2.4.19-.2.82-.25,1.16-.08.47.24.8,1.83.4,1.98-.24.08-.26.06-.46-.66-.34-1.23-.84-1.13-.84.16,0,.98.3,3.92.44,4.25.13.32.39.45.57.28.07-.07.13-.41.13-.76,0-.41.06-.72.17-.85.17-.2.17-.2.34,0,.2.24.22.94.04,1.6-.18.68-.87.99-1.42.63ZM69.6,8.98c-.4-.22-.54-.68-.54-1.82,0-1.39.2-3.72.35-4.17.37-1.06,1.87-.97,2.09.13.09.45-.13,4.19-.29,4.89-.16.69-.54,1.09-1.04,1.08-.21,0-.46-.05-.57-.11ZM70.58,7.69c.15-1.16.28-3.95.2-4.36-.06-.33-.14-.43-.33-.46-.36-.05-.44.23-.58,2.02-.18,2.28-.16,3.3.06,3.51.17.16.2.16.38,0,.12-.1.23-.4.27-.72ZM64.03,8.56c-.16-.18-.32-.5-.37-.71-.11-.54.15-5.38.3-5.64.07-.12.18-.2.26-.17.1.03.13.82.13,3.02,0,2.56.02,3,.18,3.14.21.2.52.12.62-.16.04-.11.13-1.43.21-2.94.08-1.51.18-2.8.23-2.86.14-.22.4-.13.48.17.13.5-.15,5.35-.34,5.76-.34.76-1.19.96-1.71.39ZM67.27,8.71c-.07-.12-.06-1.23.01-3.04l.12-2.84-.26-.2c-.4-.31-.23-.52.41-.5,1.14.03,1.55.26.95.55-.37.17-.42.41-.57,2.96-.07,1.21-.17,2.42-.21,2.69-.08.53-.28.69-.45.38ZM45.76,8.68c-.21-.32-.58-6.05-.41-6.35.13-.23.29-.28.4-.11.11.17.27,1.65.41,4.01.11,1.81.11,2.26,0,2.39-.16.19-.3.21-.4.07ZM47.37,8.65c-.42-.29-.54-.9-.67-3.13-.13-2.34-.07-2.9.36-3.3.52-.49,1.32-.34,1.65.3.23.45.47,4.04.34,5.03-.11.79-.48,1.22-1.07,1.22-.23,0-.51-.06-.61-.13ZM48.17,8.16c.08-.05.18-.28.21-.5.09-.6-.17-4.78-.31-5.02-.16-.28-.41-.26-.63.06-.17.24-.17.5-.06,2.7.14,2.75.24,3.09.79,2.76ZM49.85,8.58c-.1-.15-.29-3.53-.28-4.93.01-1.44.08-1.69.44-1.69.25,0,.32.12.73,1.18.25.65.49,1.21.53,1.25.04.04.11-.48.15-1.16.07-1.07.11-1.22.28-1.22.29,0,.36.45.44,3.01.1,2.96.07,3.44-.21,3.44-.23,0-.37-.29-.96-2.01-.17-.49-.35-.94-.4-.98-.1-.11-.23,1.09-.23,2.23,0,.48-.02.87-.05.87s-.12.03-.22.06c-.09.03-.2.01-.24-.05ZM55.67,8.51c-.17-.19-.17-.08-.13-3.78.02-2.77.03-2.83.26-2.83.13,0,.25.06.28.13.03.07.09,1.44.14,3.04l.09,2.91.55.14c.31.08.53.2.5.26-.1.29-1.44.38-1.68.12ZM52.69,8.4c-.12-.29.5-5.46.74-6.16.09-.27.18-.34.36-.32.34.05.44.39.91,3.24.46,2.78.49,3.17.23,3.27-.23.08-.36-.11-.46-.63-.04-.22-.16-.51-.27-.63-.16-.19-.24-.21-.46-.12-.2.08-.31.27-.44.79-.18.68-.46.94-.61.56ZM54.07,5.9c.02-.15-.03-.48-.1-.73-.13-.43-.14-.44-.22-.19-.11.35-.13,1.11-.03,1.2.15.14.32,0,.35-.28ZM60.78,8.26c0-.6.63-4.51.92-5.75.1-.42.16-.5.39-.5.15,0,.29.04.33.1.21.31.82,5.74.69,6.2-.08.28-.34.35-.44.12-.03-.08-.09-.36-.14-.63-.1-.6-.3-.78-.7-.64-.24.08-.33.22-.48.73-.12.43-.24.64-.38.67-.15.03-.2-.04-.2-.29ZM62.24,5.78c-.01-.57-.16-1.03-.25-.81-.19.43-.28,1.11-.17,1.23.22.25.44.03.43-.42ZM18.73,37.21c-.08-.07-.14-.41-.14-.79,0-.87-.19-.96-.29-.15-.08.66-.26.92-.56.81-.13-.05-.17-.24-.17-.81,0-1.11-.21-.99-.4.23-.07.42-.12.5-.33.5-.55,0-.64-.4-.34-1.54.23-.87.62-1.21,1.35-1.21.63,0,1.01.14,1.36.49.33.33.35.73.12,1.66-.18.71-.4.99-.61.79ZM12.7,36.12c-.1-.12-.13-.44-.1-1.09.08-1.51.58-2.18,1.64-2.16.58.01.94.2,1.33.68.32.4.41,1.9.14,2.39-.15.28-.25.34-.5.31-.3-.03-.31-.05-.34-.88-.03-.94-.12-1.11-.42-.83-.17.16-.19.31-.13.91.05.59.03.74-.11.79-.37.13-.55-.25-.56-1.15,0-.54-.05-.88-.13-.9-.12-.04-.23.52-.29,1.56-.03.51-.26.68-.53.38ZM11.02,35.52c-.17-.16-.17-.65-.01-1.35.13-.59.09-1.14-.05-.59-.22.87-.32,1.1-.59,1.37-.26.27-.31.28-.47.13-.15-.14-.16-.26-.05-.84.07-.37.12-.79.12-.94v-.26s-.11.26-.11.26c-.05.15-.18.54-.28.88-.2.68-.57.97-.91.71-.24-.19-.22-.58.11-1.66.41-1.34.99-1.72,2.16-1.41.74.19,1.07.6,1.07,1.33,0,.69-.21,2.03-.36,2.29-.12.21-.44.24-.64.06ZM106.2,35.54c-.11-.17-.32-2.21-.24-2.39.1-.25.4-.17.49.14.23.83.04,2.68-.24,2.25ZM111.01,34.99c-.17-.6-.11-3.31.09-3.49.08-.07.18-.1.22-.06s.13.63.19,1.31c.17,1.94-.15,3.4-.49,2.23ZM6.39,33.89c-.06-.16-.02-.63.14-1.63.1-.6-.07-.49-.57.4-.44.78-.69.81-.68.08,0-.29.05-.76.1-1.04.15-.8-.14-.58-.61.45-.22.48-.48.92-.59.97-.26.14-.53.02-.71-.32-.14-.25-.13-.35.04-.81.32-.85.83-1.99,1-2.24.33-.49,1.24-.41,2.24.2.6.37,1.08,1.05,1.08,1.56,0,.38-.58,2.14-.78,2.36-.21.23-.57.24-.66.02ZM45.91,33.22c-.24-.18-.27-.3-.3-1.34-.06-1.64.04-2.21.39-2.36.45-.19.59-.14.82.28.28.51,1.52,3.42,1.47,3.46-.02.02-.5.06-1.07.09-.91.06-1.07.04-1.3-.13ZM47.23,32.5c-.14-.5-.75-1.93-.86-1.99-.14-.08-.13.17.01,1.19.16,1.09.16,1.09.57,1.09.33,0,.35-.02.28-.29ZM43.04,33.17c-.58-.09-.8-.17-.83-.29-.05-.22,1.45-2.94,1.7-3.09.12-.07.37-.07.73,0,.46.08.56.14.63.39.11.4-.09,2.34-.29,2.78-.15.33-.2.36-.65.35-.27,0-.84-.07-1.28-.13ZM44.33,32.49c.14-.24.35-1.79.27-1.99-.14-.33-.61-.03-.77.49-.05.15-.21.49-.35.76-.32.59-.34.79-.07.86.47.11.82.07.93-.12ZM48.96,33.24c-.25-.06-.6-.7-1.21-2.22-.61-1.51-.6-1.96.02-2.29q.42-.23.64-.01c.22.21,1.75,3.59,1.88,4.16.06.27.04.31-.29.37-.39.07-.73.07-1.04,0ZM49.33,32.06c0-.48-.87-2.34-1.09-2.34-.09,0-.15.06-.15.14,0,.27.55,1.88.73,2.14.22.31.52.35.52.07ZM39.86,32.93c-.5-.08-.95-.19-1-.24-.09-.09,1.92-2.56,2.35-2.89.28-.21.87-.23,1.43-.04.34.12.39.18.38.46-.02.35-1.07,2.11-1.55,2.59-.33.33-.34.33-1.61.12ZM41.66,31.48c.44-.91.45-.94.24-1.09-.12-.08-.27-.13-.34-.12-.22.06-1.3,1.68-1.23,1.84.07.18.46.35.71.32.09-.01.37-.44.62-.96ZM50.94,32.97c-.44-.49-2.06-4.2-2.06-4.71,0-.26.09-.38.42-.59.57-.36.96-.35,1.31.04.59.66,2.23,4.08,2.23,4.66,0,.24-.08.32-.45.46-.72.27-1.29.32-1.46.14ZM51.92,32.11c.1-.11,0-.39-.39-1.23-.9-1.9-1.04-2.12-1.36-2.12-.16,0-.31.07-.35.16-.06.15,1.02,2.55,1.39,3.09.18.27.52.31.71.09ZM63.5,32.83c-1.13-.29-1.93-.94-2.51-2.03-.51-.96-.5-.98,1.23-.91,1.42.06,1.48.05,2.47-.28.56-.19,1.43-.59,1.94-.9.89-.54,1.82-1.29,1.71-1.39-.03-.03-.35.09-.72.26-1.91.89-3.55,1.06-4.87.51-.84-.35-1.33-.8-1.57-1.43-.2-.52-.23-1.13-.07-1.23.06-.03.54,0,1.06.07,1.21.16,1.97.04,3.2-.54,1.02-.48,2.48-1.44,2.39-1.57-.03-.05-.56-.11-1.18-.14-.96-.04-1.23-.1-1.9-.39-1.01-.44-1.41-.74-1.85-1.35-.55-.77-.54-.78.92-.78,2.02,0,3.94-.26,3.94-.54,0-.05-.17-.1-.37-.1-.57,0-1.63-.29-2.2-.6-.66-.36-1.09-.97-1.11-1.55v-.44s1.68-.02,1.68-.02c1.82-.02,3.17-.23,3.59-.55l.24-.18-.35-.63c-.6-1.08-.67-2.14-.19-3.01.47-.85.74-.92,1.31-.37.21.21.46.36.54.34.08-.02.26-.29.4-.61.14-.32.33-.6.43-.61.1-.02.56.25,1.02.59,1.3.97,1.23.96,1.98.33.39-.33.7-.52.81-.48.09.03.19.06.21.06s.3.42.61.94c1.16,1.89,2.38,2.68,4.89,3.14,2.73.5,3.53.86,4.16,1.85.47.72.49,1.36.1,2.09-.27.49-.91,1.19-1.1,1.19-.05,0-.15-.2-.22-.44-.18-.61-.43-.94-.87-1.11-.43-.17-1.04-.19-1.28-.04-.21.13-.15.18.4.34.37.11.46.19.49.44.04.36-.26.7-.98,1.09-.53.29-.54.29-3.99.08-.98-.06-1.1-.05-1.37.15-.46.34-.6,1-.59,2.87.01,2.5.33,3.61,1.32,4.57,1.04,1.01,2.5,1.36,3.56.85.26-.13.53-.23.6-.23.17,0,.14.81-.04,1.15-.24.44-1.11,1.13-1.59,1.28-.26.08-.77.11-1.31.08-.77-.04-1.02-.11-1.97-.55l-1.08-.5-.37.4c-.77.84-.87.91-1.2.83-.55-.13-1.12-.58-1.76-1.42-.85-1.1-1.03-1.24-1.35-1.1-.14.06-.64.42-1.12.79-.94.74-2.17,1.36-3.17,1.6-1.04.25-2.23.3-2.94.12ZM65.6,31.88c1.06-.13,2.77-.94,3.8-1.81.59-.5.9-1.06.93-1.7.03-.47,0-.51-.26-.54-.2-.02-.55.15-1.19.57-2.18,1.46-3.62,2.13-5.24,2.43-1.17.22-1.27.28-.99.57.12.13.32.28.44.34.28.14,1.28.28,1.65.24.16-.02.54-.07.85-.1ZM74.18,31.66c.21-.23.22-1.87,0-2.07-.12-.11-.26-.08-.76.16-.93.45-1,.56-.75,1.09.14.29.37.52.7.71.58.33.59.33.79.1ZM79.27,31.62c0-.06-.11-.11-.26-.11s-.69-.14-1.21-.31c-.53-.17-.98-.29-1-.27-.06.06.68.56,1,.68.37.14,1.47.15,1.47.01ZM72.65,28.83c.24-.65.32-1.98.12-2.22-.15-.19-.18-.19-.56-.02-.22.1-.52.29-.66.43-.23.23-.25.34-.21,1.11.04.8.07.88.37,1.12.29.23.35.24.56.11.13-.08.3-.33.38-.55ZM65.85,27.23c1.13-.31,3.6-2.1,4.57-3.32.37-.46.45-.65.45-1.03,0-.78-.22-.72-1.51.46-1.68,1.53-3.88,2.7-5.52,2.94-1.1.16-1.38.26-1.34.51.02.14.19.3.43.42.51.24,2.1.25,2.91.03ZM74.49,26.84c.33-.71.4-1.75.16-2.19-.26-.47-.53-.52-.79-.14-.39.56-.15,2.79.3,2.79.07,0,.22-.2.33-.45ZM71.41,26.12c.94-.64,1.67-1.94,1.38-2.44-.26-.45-1.71.61-2.3,1.68-.19.34-.25.89-.11,1.02.17.16.58.05,1.03-.25ZM74.95,22.91c.19-.36.29-.75.32-1.33.06-.99-.03-1.11-.76-.94-.4.1-.56.08-.89-.06-.37-.17-.44-.17-.96,0-.4.12-.63.27-.78.51-.28.43-.28,1.03,0,1.35l.21.25.46-.29c.26-.16.51-.29.57-.29s.24.23.42.5c.65,1.06.97,1.13,1.4.3ZM68.27,22.04c.79-.22,2.27-.93,2.59-1.25.2-.2.23-.29.13-.52-.26-.63.18-1.53,1.09-2.25,1.32-1.05,1.42-1.16,1.32-1.48-.08-.27-.08-.52,0-1.82.02-.32-.05-.42-.58-.82-.33-.25-.65-.43-.71-.4-.16.09-.13,1.12.06,1.7.21.66.21.78,0,.78-.27,0-1.13-.8-1.71-1.59-.29-.4-.58-.73-.63-.73s-.17.12-.27.26c-.17.24-.17.31,0,.91.2.74.38,1,1.19,1.74.32.29.58.58.58.65s-.25.22-.56.35c-1.13.45-1.83.57-3.78.62-2.17.06-2.36.16-1.25.63.78.33,1.89.42,3.09.25,1.03-.15,1.18-.06,1.16.68-.02.8-.49,1.13-2.17,1.51-.79.18-2.55.44-2.99.44-.22,0,.2.32.54.41.59.16,2.24.13,2.91-.05ZM81.25,21.26c.07-.11-.4-.25-1.52-.43-1.02-.17-1.42-.38-1.29-.69.14-.33,2.43-.97,3.8-1.07.89-.06,1.05-.04,1.73.21.41.15.77.28.8.28.17,0,.02-.72-.22-1.01-.36-.45-1.06-.74-2.51-1.06-1.68-.37-1.65-.37-2.31.41-.31.37-1.1,1.09-1.76,1.61-.66.52-1.2.98-1.2,1.02,0,.11.62.27,1.93.5.65.12,1.29.23,1.42.26.43.09,1.06.07,1.13-.03ZM72.5,19.71c.2-.09.58-.33.84-.53.26-.2.52-.36.58-.36.13,0,.25.25.25.54,0,.12.08.2.19.2.19,0,.95-.68.95-.85,0-.05.4-.28.88-.51.87-.41,1.28-.8,1.28-1.24,0-.15-.11-.09-.48.25-.66.6-1.21.73-2.12.49-.63-.16-.72-.16-1.06-.01-.53.23-1.61,1.19-1.78,1.56-.13.29-.1.64.06.64.04,0,.23-.08.43-.17ZM77.81,18.64c.8-.77,1.23-1.27,1.23-1.42,0-.05-.09-.04-.21.04-.26.18-1.7,1.67-1.85,1.91-.21.37.09.17.82-.53ZM76,16.53c.27-.22.13-.38-.28-.3-.43.08-.7-.06-.88-.46-.17-.39-.31-.41-.41-.05-.1.39.12.77.55.94.4.16.71.12,1.02-.13ZM76.32,14.77c0-.15-.59-.96-.79-1.07-.23-.13-.34.04-.22.34.23.56,1.01,1.13,1.01.73ZM36.14,32.72c-.84-.16-1.34-.35-1.41-.53-.02-.07.18-.29.45-.49.99-.74,4.43-2.93,4.61-2.93.27,0,1.04.61,1.04.83,0,.18-2.51,2.83-2.97,3.13-.3.2-.66.2-1.72,0ZM38.71,30.97c1.22-1.13,1.24-1.16,1-1.31-.23-.15-.33-.11-1.78.81-1.51.95-1.83,1.24-1.71,1.53.09.21.76.36,1.03.23.12-.06.78-.62,1.47-1.26ZM68.53,32.71c-.05-.13.09-.31.49-.65.81-.68,1.42-1.08,1.63-1.08.17,0,1.14,1.43,1.14,1.68,0,.1-1.36.23-2.46.23-.57,0-.74-.04-.8-.18ZM44.19,29.25c-.31-.29-.25-.95.11-1.21.35-.26,1.01-.29,1.1-.06.06.14-.17,1.17-.29,1.28-.17.16-.75.16-.92,0ZM44.89,28.52c.03-.24,0-.29-.17-.26-.13.02-.22.15-.24.34-.03.24,0,.29.17.26.13-.02.22-.15.24-.34ZM41.72,29.14c-.29-.09-.58-.22-.66-.3-.08-.09-.17-.89-.23-2.14-.05-1.1-.13-2.08-.18-2.18-.04-.1-.33-.36-.64-.57-.89-.61-.97-.93-.49-2,.17-.39.28-.84.28-1.17,0-.46-.07-.64-.5-1.25-.83-1.18-1.84-4.04-1.73-4.91.07-.62.34-.82,1.24-.91,1.2-.12,1.55-.23,2.06-.62.44-.33.57-.38,1.12-.38.7,0,1.81.41,2.41.88.31.25.36.36.43,1.01.07.63.14.81.54,1.3.25.31.63.81.84,1.1.21.29.61.81.9,1.15.57.68.64,1.02.33,1.58-.22.4-.6.81-.76.81-.06,0-.23-.1-.38-.23-.3-.26-.33-.16-.11.35.18.42.14.57-.25.96-.34.34-.55.36-.86.09l-.23-.21.04.51c.04.47.01.53-.35.79-.45.32-.72.35-1.01.1-.41-.34-.44-.02-.13,1.13.27.98.3,1.32.31,2.93,0,1.69,0,1.84-.22,2.03-.31.28-1.12.36-1.77.17ZM42.71,27.86c.16-.23.18-.46.12-1.61-.04-.74-.17-1.88-.3-2.55-.38-1.99-.46-1.77,1.29-3.61.86-.91,1.55-1.72,1.59-1.89.11-.45-.21-1.12-.96-2.05-.65-.8-.69-.88-.66-1.38.03-.61-.06-.7-1.01-1.03-.8-.28-.89-.27-1.3.11-.54.5-.76.6-1.71.74-.95.14-1.14.28-1.03.74.3,1.2.81,2.48,1.29,3.22.94,1.44,1.09,2.17.71,3.49l-.19.67.4.56c.57.8.64,1.06.78,2.81.13,1.57.27,2.03.62,2.03.09,0,.25-.12.35-.27ZM40.8,17.82c-.65-.34-.27-1.64.47-1.64.52,0,.91.37.91.84,0,.74-.71,1.14-1.39.79ZM44.36,22.35c.23-.19.25-.33.1-.56-.09-.13-.15-.12-.4.1-.52.46-.23.91.3.46ZM46.12,19.06c.47-.5.6-.7.51-.79-.17-.16-.25-.08-2.26,1.96-1.23,1.25-1.62,1.71-1.56,1.85.06.15.34-.07,1.38-1.09.72-.7,1.59-1.57,1.93-1.93ZM45.79,21.09c.02-.12-.07-.3-.2-.41-.21-.18-.24-.18-.3-.02-.04.1-.04.3,0,.44.09.33.44.32.5-.01ZM47.07,19.45c.17-.22.21-.36.13-.43-.15-.14-.89.46-.78.63.14.21.38.14.64-.2ZM46.04,28.6c-.15-.37-.14-.89.03-1.2.08-.14.44-.4.81-.58l.67-.32.21.25c.15.17.21.41.21.8,0,.47-.05.59-.31.81-.67.57-1.44.68-1.62.24ZM47.07,28.23c.14-.07.22-.22.22-.41,0-.34-.17-.44-.54-.31-.2.07-.26.17-.26.46,0,.4.16.47.57.26ZM48.5,27.42c-.64-.66-.16-2.04.72-2.04.43,0,.67.35.67.98s-.14.88-.64,1.08c-.51.2-.53.2-.75-.03ZM49.33,26.75c.07-.12.09-.36.05-.53-.06-.24-.13-.31-.31-.28-.35.05-.51.57-.25.83.25.26.35.26.51-.01ZM44.25,27.27c-.07-.07-.14-.33-.14-.58,0-.39.07-.53.47-.94.67-.68.93-.63.98.21.02.34-.02.75-.09.91-.2.44-.92.68-1.22.4ZM45.07,26.58c.11-.41-.13-.58-.39-.27-.24.28-.18.55.12.55.12,0,.23-.11.28-.28ZM46.04,26.33c-.07-.12-.11-.53-.09-.92.03-.67.05-.72.42-.95.21-.13.53-.24.7-.24.27,0,.34.06.44.4.27.9.09,1.46-.56,1.77-.45.22-.76.2-.91-.06ZM46.88,25.64c.11-.27.08-.77-.05-.84-.12-.07-.56.23-.56.38,0,.05.05.2.11.35.12.3.4.36.5.1ZM48.08,25.07c-.07-.12-.15-.52-.19-.89l-.07-.68.46-.46c.39-.38.5-.44.67-.35.51.29.77,1.39.45,1.93-.17.29-.73.65-1,.65-.11,0-.25-.09-.32-.21ZM48.97,24.3c.19-.17.17-.88-.02-1.03-.34-.26-.77.51-.53.93.14.25.35.28.55.09ZM44.29,24.94c-.25-.33-.24-1.27.02-1.48.74-.6,1.04-.44,1.13.58.05.6.03.71-.18.91-.31.29-.75.29-.97-.01ZM45,24.18c.03-.34,0-.4-.17-.37-.15.03-.22.15-.24.44-.03.34,0,.4.17.37.15-.03.22-.15.24-.44ZM45.84,23.78c-.08-.08-.14-.39-.14-.73,0-.51.04-.63.32-.88.49-.44.76-.38.98.21.1.27.18.6.18.72,0,.48-1,.98-1.33.67ZM46.7,23.07c.05-.5-.16-.67-.44-.35-.12.14-.22.37-.22.51,0,.22.05.25.31.23.26-.03.32-.09.35-.39ZM36.29,22.59c-.34-.08-1.24-.25-1.98-.38-1.59-.28-1.87-.37-1.87-.56,0-.23.32-.43,1.5-.92.61-.25,1.22-.56,1.35-.67.23-.2.23-.22.03-.35-.12-.08-.5-.14-.91-.14-1.03,0-1.06-.03-1.06-.73,0-.89.28-1.52.97-2.22.68-.69,1.81-1.31,2.28-1.26.27.03.35.15.77,1.14.51,1.21.98,2.16,1.52,3.07.22.38.35.73.35,1,0,.56-.56,1.64-.97,1.9-.41.25-1.18.3-1.98.12ZM37.51,21.62c.35-.23.59-.7.59-1.17,0-.31-.11-.53-.51-1-.32-.38-.69-1.02-.97-1.7-.25-.6-.5-1.13-.56-1.18-.32-.31-1.39.53-1.6,1.24-.16.54-.02.65.94.75.77.08,1.27.28,1.38.54.04.09.07.43.07.75,0,.61-.1.76-.86,1.27-.42.28-.28.46.43.57.75.11.81.11,1.08-.07ZM47.35,22.32c-.22-.4-.22-1.09,0-1.48.22-.39.82-.86,1.02-.79.2.07.75,1.21.74,1.54,0,.29-.15.48-.61.81-.48.34-.93.31-1.14-.08ZM48.32,21.91c.23-.17.25-.24.15-.54-.15-.48-.46-.65-.68-.38-.2.25-.21.82-.03.99.18.17.25.16.55-.07ZM30.56,21.62c-1.19-.59-1.36-.84-1.29-1.9.06-.83.4-1.35,1.34-2.03.76-.55,2-1.13,2.22-1.06.2.07.2.15-.02,1.53l-.18,1.13-.68.6c-.65.58-.68.62-.61,1,.14.84.15.82-.15.85-.16.02-.44-.05-.62-.14ZM31.05,19.58c.53-.45.61-.57.67-1,.05-.44.04-.49-.17-.49-.59,0-1.67,1.6-1.31,1.94.12.12.18.08.82-.45Z"/></g></svg>